<?xml version="1.0" encoding="utf-8"?>
<!-- Generator: Adobe Illustrator 19.0.0, SVG Export Plug-In . SVG Version: 6.00 Build 0)  -->
<svg version="1.1" id="Layer_1" xmlns="http://www.w3.org/2000/svg" xmlns:xlink="http://www.w3.org/1999/xlink" x="0px" y="0px"
	 viewBox="0 0 256 256" style="enable-background:new 0 0 256 256;" xml:space="preserve">
<style type="text/css">
	.st0{fill:#966BE8;}
	.st1{fill:#2A3274;}
	.st2{fill:#7EEDD0;}
	.st3{fill:#FFFFFF;}
</style>
<g id="XMLID_890_">
	<g id="XMLID_896_">
		<g id="XMLID_897_">
			<g id="XMLID_898_">
				<g id="XMLID_902_">
					<path id="XMLID_907_" class="st0" d="M118.3,47.1C68.4,47.1,28,87.5,28,137.4c0,49.9,40.4,90.3,90.3,90.3
						c49.9,0,90.3-40.4,90.3-90.3h-90.3V47.1z"/>
					<path id="XMLID_903_" class="st1" d="M118.3,232.7c-41.6,0-78-26.6-90.7-66.1c-0.8-2.6,0.6-5.4,3.2-6.3
						c2.6-0.8,5.4,0.6,6.3,3.2c11.4,35.4,44,59.2,81.2,59.2c11.6,0,22.8-2.3,33.3-6.8c2.5-1.1,5.5,0.1,6.6,2.6
						c1.1,2.5-0.1,5.5-2.6,6.6C143.7,230.1,131.2,232.7,118.3,232.7z M171,215.7c-1.6,0-3.1-0.7-4.1-2.1c-1.6-2.2-1.1-5.4,1.1-7
						c20.9-15,33.9-38.8,35.4-64.3h-59.2c-2.8,0-5-2.2-5-5s2.2-5,5-5h64.4c1.3,0,2.6,0.5,3.5,1.5c0.9,0.9,1.5,2.2,1.5,3.5
						c0,30.6-14.8,59.5-39.7,77.4C173,215.4,172,215.7,171,215.7z M28.4,150.5c-2.6,0-4.7-2-5-4.6c-0.3-2.8-0.4-5.7-0.4-8.6
						c0-52.5,42.7-95.3,95.3-95.3c2.8,0,5,2.2,5,5v85.3h0.9c2.8,0,5,2.2,5,5s-2.2,5-5,5h-5.9c-2.8,0-5-2.2-5-5V52.2
						C68.6,54.8,33,92,33,137.4c0,2.6,0.1,5.1,0.3,7.7c0.2,2.8-1.8,5.2-4.5,5.4C28.7,150.5,28.5,150.5,28.4,150.5z"/>
				</g>
				<g id="XMLID_899_">
					<path id="XMLID_901_" class="st2" d="M137.7,28.3v90.3H228C228,68.7,187.6,28.3,137.7,28.3z"/>
					<path id="XMLID_900_" class="st1" d="M228,123.6h-10.6c-2.8,0-5-2.2-5-5s2.2-5,5-5h5.4c-2.5-43.3-36.6-77.7-80.1-80.1v80.1
						h54.7c2.8,0,5,2.2,5,5s-2.2,5-5,5h-59.7c-2.8,0-5-2.2-5-5V28.3c0-2.8,2.2-5,5-5c0.4,0,0.9,0.1,1.3,0.2c0.4-0.1,0.9-0.1,1.3-0.1
						c24.9,0.7,48.2,10.9,65.6,28.7C223.4,70,233,93.6,233,118.6c0,1.3-0.5,2.6-1.5,3.5C230.6,123.1,229.3,123.6,228,123.6z"/>
				</g>
			</g>
		</g>
	</g>
	<g id="XMLID_891_">
		<path id="XMLID_892_" class="st3" d="M184.1,159.6c-0.6,0-1.2-0.1-1.7-0.4c0,0-0.1,0-0.1-0.1h-15.1c-1.9,0-3.5-1.6-3.5-3.5
			s1.6-3.5,3.5-3.5h16c1.4,0,2.3,0.7,2.7,1l0,0c0,0-0.1,0-0.1-0.1c1.7,0.9,2.3,3.1,1.3,4.8C186.5,158.9,185.3,159.6,184.1,159.6z
			 M157.2,159.1h-17c-1.9,0-3.5-1.6-3.5-3.5s1.6-3.5,3.5-3.5h17c1.9,0,3.5,1.6,3.5,3.5S159.2,159.1,157.2,159.1z M130.2,159.1H128
			c-1.9,0-3.5-1.6-3.5-3.5s1.6-3.5,3.5-3.5h2.2c1.9,0,3.5,1.6,3.5,3.5S132.2,159.1,130.2,159.1z"/>
	</g>
</g>
</svg>
