<?xml version="1.0" encoding="utf-8"?>
<!-- Generator: Adobe Illustrator 19.0.0, SVG Export Plug-In . SVG Version: 6.00 Build 0)  -->
<svg version="1.1" id="Layer_1" xmlns="http://www.w3.org/2000/svg" xmlns:xlink="http://www.w3.org/1999/xlink" x="0px" y="0px"
	 viewBox="0 0 256 256" style="enable-background:new 0 0 256 256;" xml:space="preserve">
<style type="text/css">
	.st0{fill:#FFE2AE;}
	.st1{fill:#EA5ED9;}
	.st2{fill:#2A3274;}
	.st3{fill:#EC1C24;}
	.st4{fill:#FFFFFF;}
</style>
<g id="XMLID_957_">
	<g id="XMLID_996_">
		<circle id="XMLID_998_" class="st0" cx="129.2" cy="169.9" r="61.6"/>
	</g>
	<g id="XMLID_962_">
		<g id="XMLID_963_">
			<g id="XMLID_964_">
				<g id="XMLID_991_">
					<path id="XMLID_995_" class="st1" d="M139.3,205.7c-0.5,5-6.5,9-10.1,9c-3.7,0-9.6-4.1-10.1-9c-1-10.1,7.1-3,10.1-3
						C131.9,202.6,140.4,195.8,139.3,205.7z"/>
					<path id="XMLID_992_" class="st2" d="M129.2,219.7c-6.2,0-14.3-6-15.1-13.5c-0.1-0.8-0.1-1.5-0.1-2.1c0-6.5,4.1-8.8,7.5-8.8
						c2.4,0,4.6,1,6.4,1.8c0.3,0.2,0.8,0.4,1.2,0.5c0.3-0.1,0.7-0.3,1-0.4c1.8-0.8,4.2-1.8,6.5-1.8c3.5,0,7.6,2.3,7.6,8.8
						c0,0.7,0,1.3-0.1,2.1v0C143.5,213.7,135.4,219.7,129.2,219.7z M124.6,206.4c1,1.7,3.5,3.3,4.6,3.3c1.1,0,3.6-1.6,4.6-3.3
						c-1.5,0.7-3,1.2-4.6,1.2C127.6,207.6,126.1,207.1,124.6,206.4z"/>
				</g>
				<g id="XMLID_984_">
					<path id="XMLID_990_" class="st1" d="M128,78.5c-44.8,0-83.1,40.8-74.5,85.4c4.1,21.2,9.4,50.8,36.6,60.9
						c7.2,2.7,16.1,3.3,24.1,3.3c2.5,0,2.1-1-0.5-1.6c-24.7-6.3-43.1-28.8-43.1-55.5c0,0,0-13,0-17.3c0-2.1,1.1-2.8,2.9-2.8
						c3.1,0,8,0,12.6,0c5.8,0,6.2-26.7,9.5-26.7c4.3,0,6.3,26.6,13.1,26.6c23.6,0,63.5,0.1,74,0.2c1.7,0,2.6,0.6,2.6,2.9
						c0,4.3,0,17.2,0,17.2c0,26.9-18.6,49.4-43.6,55.6c-2.2,0.5-2.7,1.3-0.3,1.3c9.2-0.2,21.1-1.3,26.7-3.9
						c30.4-13.9,30.4-38.8,34.4-60C210.9,118.9,172.9,78.5,128,78.5z"/>
					<path id="XMLID_985_" class="st2" d="M113.7,233c-10.5,0-18.8-1.2-25.3-3.6c-11.6-4.3-20.8-12.4-27.3-24
						c-1.3-2.4-0.5-5.5,1.9-6.8c2.4-1.3,5.5-0.5,6.8,1.9c4.5,8,10.2,13.7,17.4,17.5c-13.3-11.5-21.5-28.6-21.5-47.1V159
						c0-2.8,2.2-5,5-5s5,2.2,5,5v11.9c0,23.9,16.2,44.7,39.3,50.6c4.9,1.3,5.9,3.9,5.9,6c0,0.6-0.2,5.5-6.7,5.5L113.7,233z
						 M141.2,232.8c-6.3,0-6.3-5.1-6.3-5.3c0-2,1-4.6,5.7-5.8c19.5-4.8,34.6-20.6,38.7-40.2c0.6-2.7,3.2-4.4,5.9-3.9
						c2.7,0.6,4.4,3.2,3.9,5.9c-2.8,13.7-10.2,25.8-20.5,34.6c17-8.7,22.7-21.1,25.9-37c0.5-2.7,3.2-4.5,5.9-3.9
						c2.7,0.5,4.5,3.2,3.9,5.9c-3.2,16.2-9.8,34.3-34.1,45.4c-7.9,3.6-23.9,4.2-28.7,4.3L141.2,232.8z M58.1,189.4
						c-2.2,0-4.2-1.4-4.8-3.6c-2-7-3.3-14-4.5-20.1l-0.2-0.8c-0.9-4.5-1.3-9.1-1.3-13.6c0-20.4,8.6-39.8,24.2-54.7
						c15.3-14.6,35.9-23,56.5-23c43.7,0,80.7,35.6,80.7,77.8c0,3.9-0.3,7.9-1,11.9c-0.4,2.7-3,4.6-5.7,4.1c-2.7-0.5-4.6-3-4.1-5.7
						c0.6-3.4,0.8-6.8,0.8-10.2c0-36.8-32.4-67.8-70.7-67.8c-38.3,0-70.7,31-70.7,67.7c0,3.9,0.4,7.8,1.1,11.7l0.2,0.9
						c1.1,6,2.5,12.7,4.3,19.3c0.7,2.7-0.8,5.4-3.5,6.2C59,189.4,58.5,189.4,58.1,189.4z M185.3,167.5c-2.8,0-5-2.2-5-5v-6.7
						c-16.2-0.1-50.6-0.2-71.5-0.2c-6.8,0-9.7-7.8-12.1-16.3c-1.7,8.9-3.9,16.4-10.4,16.4h-2.6c-2.8,0-5-2.2-5-5s2.2-5,5-5h1
						c1.1-2.5,2.2-8.6,2.8-12.1c1.6-8.8,2.6-14.6,8.2-14.6c5.7,0,7.4,6.1,9.7,14.6c1,3.6,2.8,10,4.2,11.9c22.2,0,58.4,0.1,73.1,0.2
						c4.6,0,7.6,3.1,7.6,7.9v8.8C190.3,165.3,188.1,167.5,185.3,167.5z"/>
				</g>
				<g id="XMLID_981_">
					<path id="XMLID_983_" class="st3" d="M128,71.1c12,0,24.1,2.7,35.3,7.7c1.1,0.5,2.8,1.5,4.3-0.3c2-3.7,2.1-5.9,2.1-10.1
						c0-17.8-18.7-32.2-41.8-32.2S86.3,50.6,86.3,68.4c0,4.2,0.4,6.8,2.3,10.5c1.6,1.8,2.9,0.3,4.1-0.2
						C103.8,73.8,115.8,71.1,128,71.1z"/>
					<path id="XMLID_982_" class="st2" d="M90.2,84.8c-1.4,0-3.5-0.4-5.4-2.6c-0.3-0.3-0.5-0.6-0.7-1c-2.2-4.2-2.7-7.5-2.8-11.1
						c-0.1-2.8,2.1-5.1,4.8-5.2c0.1,0,0.1,0,0.2,0c2.7,0,4.9,2.1,5,4.8c0,1.6,0.2,2.7,0.5,3.9c11.5-5,24-7.6,36.2-7.6
						c12.1,0,24.6,2.7,36.3,7.7c0.4-1.4,0.5-2.8,0.5-5.4c0-15-16.5-27.2-36.8-27.2c-12.9,0-25,5.1-31.6,13.4c-1.7,2.2-4.9,2.5-7,0.8
						c-2.2-1.7-2.5-4.9-0.8-7C97.2,37.6,112,31.2,128,31.2c25.8,0,46.8,16.7,46.8,37.2c0,4.6-0.2,7.7-2.7,12.5
						c-0.2,0.3-0.4,0.6-0.6,0.9c-1.5,1.8-3.6,2.9-5.9,2.9c-1.8,0-3.3-0.7-4.1-1.1l-0.2-0.1c-10.7-4.8-22.2-7.3-33.3-7.3
						c-11.2,0-22.8,2.5-33.3,7.2c0,0-0.1,0.1-0.2,0.1C93.7,83.9,92.2,84.8,90.2,84.8z"/>
				</g>
				<g id="XMLID_978_">
					<path id="XMLID_980_" class="st1" d="M96.8,39.8c1.3-0.8,1.3-2.2,0-3.1l-12.5-8.2c-1.3-0.8-3.1-0.5-3.9,0.8l-0.9,1.4
						c-0.8,1.3-0.5,3.1,0.8,3.9l10.2,6.6c1.3,0.8,3,1,3.8,0.3C94.9,41.2,96.8,39.8,96.8,39.8z"/>
					<path id="XMLID_979_" class="st2" d="M92.9,47.1c-1.8,0-3.6-0.5-5.1-1.5L77.6,39c-2.2-1.4-3.6-3.9-3.6-6.6c0-1.5,0.4-3,1.3-4.3
						l0.9-1.4c1.4-2.2,3.9-3.5,6.6-3.5c1.5,0,3,0.4,4.3,1.3l12.5,8.2c2.1,1.3,3.2,3.4,3.2,5.7c0,2.2-1.2,4.3-3.1,5.6
						c-0.8,0.6-1.9,1.4-2.2,1.7C96.2,46.6,94.6,47.1,92.9,47.1z"/>
				</g>
				<g id="XMLID_975_">
					<path id="XMLID_977_" class="st1" d="M163.4,43.1c1.2,1,3.1,1.3,4.5,0.5l15.7-8.9c1.3-0.8,1.8-2.5,1.1-3.8l-0.8-1.5
						c-0.8-1.3-2.5-1.8-3.8-1.1l-18,10.3c-1.3,0.8-1.8,1.9-0.9,2.6C161.1,41.2,162.7,42.5,163.4,43.1z"/>
					<path id="XMLID_976_" class="st2" d="M166.1,49.1c-2.2,0-4.4-0.8-6-2.2c0,0,0,0,0,0c-0.4-0.4-1.5-1.3-2.1-1.7
						c-1.5-1.2-2.4-2.9-2.4-4.8c0-2.4,1.4-4.6,3.9-6l18-10.3c1.2-0.7,2.5-1,3.9-1c2.8,0,5.4,1.5,6.8,3.9l0.8,1.5
						c0.7,1.2,1,2.5,1,3.9c0,2.8-1.5,5.4-3.9,6.8L170.4,48C169.1,48.7,167.6,49.1,166.1,49.1z"/>
				</g>
				<g id="XMLID_970_">
					<path id="XMLID_974_" class="st1" d="M108.7,170.3c-0.1-0.1-7.3-11.4-20.7-4.7c-1.2,0.6-3.4,1.2-5-1.6
						c-0.5-0.8-1.5-1.1-2.3-0.6c-0.8,0.5-1.1,1.5-0.6,2.3c2.6,4.4,6.7,4.3,9.4,2.9c0.8-0.4,1.6-0.8,2.4-1c0.2-0.1,0.3,0.1,0.2,0.3
						c-0.7,0.9-1.1,2-1.1,3.3c0,3,2.5,5.5,5.5,5.5c3,0,5.5-2.5,5.5-5.5c0-1.1-0.3-2.1-0.8-2.9c-0.1-0.1,0-0.2,0.2-0.1
						c2.8,1.5,4.3,3.7,4.4,3.9c0.3,0.5,0.9,0.8,1.4,0.8c0.3,0,0.6-0.1,0.9-0.3C109,172.1,109.2,171.1,108.7,170.3z"/>
					<path id="XMLID_971_" class="st2" d="M96.6,181.7c-4.6,0-8.6-3-10-7.2c-0.2,0-0.3,0-0.5,0c-4.2,0-8-2.3-10.3-6.3
						c-0.6-1-0.9-2.2-0.9-3.4c0-2.4,1.3-4.6,3.3-5.8c1-0.6,2.2-0.9,3.4-0.9c2,0,4,0.9,5.2,2.5c3.2-1.5,6.4-2.2,9.5-2.2
						c10.8,0,16.3,8.6,16.7,9.2l0,0c0.7,1.1,1,2.3,1,3.5c0,2.3-1.2,4.5-3.2,5.7c-1.7,1.1-4,1.3-5.8,0.6
						C103.1,180,100,181.7,96.6,181.7z M96.6,170.2c-0.1,0.2-0.3,0.4-0.4,0.7c-0.1,0.1-0.1,0.2-0.1,0.3c0,0.3,0.2,0.5,0.5,0.5
						c0.3,0,0.5-0.2,0.5-0.5c0,0,0-0.1-0.1-0.2C96.9,170.7,96.7,170.5,96.6,170.2z"/>
				</g>
				<g id="XMLID_965_">
					<path id="XMLID_969_" class="st1" d="M148.6,170.3c0.1-0.1,7.3-11.4,20.7-4.7c1.2,0.6,3.4,1.2,5-1.6c0.5-0.8,1.5-1.1,2.3-0.6
						c0.8,0.5,1.1,1.5,0.6,2.3c-2.6,4.4-6.7,4.3-9.4,2.9c-0.8-0.4-1.6-0.8-2.4-1c-0.2-0.1-0.3,0.1-0.2,0.3c0.7,0.9,1.1,2,1.1,3.3
						c0,3-2.5,5.5-5.5,5.5s-5.5-2.5-5.5-5.5c0-1.1,0.3-2.1,0.8-2.9c0.1-0.1,0-0.2-0.2-0.1c-2.8,1.5-4.3,3.7-4.4,3.9
						c-0.3,0.5-0.9,0.8-1.4,0.8c-0.3,0-0.6-0.1-0.9-0.3C148.3,172.1,148.1,171.1,148.6,170.3z"/>
					<path id="XMLID_966_" class="st2" d="M160.7,181.7c-3.4,0-6.5-1.6-8.4-4.2c-1.8,0.7-4.1,0.5-5.8-0.6c-2-1.2-3.2-3.4-3.2-5.7
						c0-1.2,0.3-2.5,1-3.5l0,0c0.2-0.4,5.8-9.2,16.7-9.2c3.1,0,6.3,0.7,9.5,2.2c1.3-1.6,3.2-2.5,5.2-2.5c1.2,0,2.3,0.3,3.4,0.9
						c2,1.2,3.3,3.4,3.3,5.8c0,1.2-0.3,2.3-0.9,3.4c-2.4,4.1-6.4,6.4-10.8,6.3C169.3,178.6,165.3,181.7,160.7,181.7z M160.7,170.2
						c-0.1,0.2-0.2,0.5-0.3,0.7c-0.1,0.2-0.1,0.3-0.1,0.3c0,0.3,0.2,0.5,0.5,0.5s0.5-0.2,0.5-0.5c0-0.1,0-0.2-0.1-0.3
						C160.9,170.7,160.8,170.5,160.7,170.2z"/>
				</g>
			</g>
		</g>
	</g>
	<g id="XMLID_958_">
		<path id="XMLID_959_" class="st4" d="M174.2,129.1c-1.3,0-2.5-0.7-3.1-1.9c-2-4-5.1-7.7-8.8-10.6c-1.5-1.2-1.8-3.4-0.6-4.9
			c1.2-1.5,3.4-1.8,4.9-0.6c4.5,3.5,8.3,8,10.8,12.9c0.9,1.7,0.2,3.8-1.5,4.7C175.2,129,174.7,129.1,174.2,129.1z M155.7,112.3
			c-0.5,0-0.9-0.1-1.4-0.3c-4.8-2-10-2.9-15-2.5c-1.9,0.2-3.6-1.3-3.8-3.2c-0.2-1.9,1.3-3.6,3.2-3.8c6.1-0.5,12.3,0.5,18.2,3
			c1.8,0.8,2.6,2.8,1.9,4.6C158.4,111.5,157.1,112.3,155.7,112.3z"/>
	</g>
</g>
</svg>
