<svg xmlns="http://www.w3.org/2000/svg" viewBox="0 0 128 128"><path d="M114.9 62.4c-2.9 3.4-6.9 5.1-11 5.1-3.3 0-6.6-1.1-9.4-3.4l-16-13.6v58.3c0 8-6.5 14.5-14.5 14.5s-14.5-6.5-14.5-14.5V50.5l-16 13.6c-6.1 5.2-15.2 4.4-20.4-1.7-5.2-6.1-4.4-15.2 1.7-20.4L54.6 8.2C60 3.6 68 3.6 73.4 8.2L113.2 42c6.1 5.2 6.8 14.3 1.7 20.4z" fill="#fcb943"/><path d="M64 126.5c-9.8 0-17.7-7.9-17.7-17.7V57.5l-5.8 4.9c-1.4 1.2-3.4 1-4.6-.4-1.2-1.4-1-3.4.4-4.6L47.4 48c1-.8 2.3-1 3.5-.5 1.1.5 1.9 1.7 1.9 2.9v58.3c0 6.2 5 11.2 11.2 11.2 2.1 0 4.2-.6 5.9-1.7 1.5-.9 3.5-.5 4.5 1 .9 1.5.5 3.5-1 4.5-2.8 1.9-6.1 2.8-9.4 2.8zm14.4-12.8H78c-1.8-.2-3-1.8-2.8-3.6.1-.4.1-.9.1-1.3V50.5c0-1.3.7-2.4 1.9-2.9 1.1-.5 2.5-.3 3.5.5l16 13.6c2 1.7 4.6 2.7 7.3 2.7 3.3 0 6.4-1.4 8.6-4 1.7-2 2.7-4.6 2.7-7.3 0-3.3-1.4-6.4-4-8.6L75.2 14c-1.4-1.2-1.5-3.2-.4-4.6 1.2-1.3 3.2-1.5 4.6-.3l35.9 30.5c4 3.4 6.2 8.3 6.2 13.5 0 4.2-1.5 8.3-4.2 11.5-3.4 4-8.3 6.2-13.5 6.2-4.2 0-8.3-1.5-11.5-4.2l-10.7-9v51.3c0 .7 0 1.4-.1 2.1-.1 1.5-1.5 2.7-3.1 2.7zM24.2 70.8c-5.2 0-10.1-2.3-13.5-6.3C8 61.3 6.5 57.2 6.5 53c0-5.2 2.3-10.1 6.2-13.5L52.5 5.7C55.7 3 59.8 1.5 64 1.5c1 0 2 .1 2.9.2 1.8.3 3 2 2.7 3.7-.3 1.8-2 3-3.7 2.7C65.2 8 64.6 8 64 8c-2.7 0-5.2.9-7.3 2.7L16.9 44.5c-2.5 2.1-4 5.3-4 8.6 0 2.7.9 5.2 2.7 7.3 2.1 2.5 5.3 4 8.6 4 .9 0 1.8-.1 2.7-.3 1.7-.4 3.5.6 3.9 2.4.4 1.7-.6 3.5-2.4 3.9-1.3.2-2.8.4-4.2.4z" fill="#2a3274"/><g><path d="M34.8 44.2c-.9 0-1.8-.4-2.5-1.2-1.2-1.4-1-3.4.4-4.6l16.4-13.8c1.4-1.2 3.4-1 4.6.4 1.2 1.4 1 3.4-.4 4.6L36.9 43.4c-.7.5-1.4.8-2.1.8zm23.3-19.6c-.9 0-1.8-.4-2.5-1.2-1.2-1.4-1-3.4.4-4.6l3.9-3.3c1.4-1.2 3.4-1 4.6.4 1.2 1.4 1 3.4-.4 4.6l-3.9 3.3c-.6.6-1.4.8-2.1.8z" fill="#fff"/></g></svg>