<?xml version="1.0" encoding="utf-8"?>
<!-- Generator: Adobe Illustrator 19.0.0, SVG Export Plug-In . SVG Version: 6.00 Build 0)  -->
<svg version="1.1" id="Layer_1" xmlns="http://www.w3.org/2000/svg" xmlns:xlink="http://www.w3.org/1999/xlink" x="0px" y="0px"
	 viewBox="0 0 256 256" style="enable-background:new 0 0 256 256;" xml:space="preserve">
<style type="text/css">
	.st0{fill:#FFF100;}
	.st1{fill:#E58638;}
	.st2{fill:#2A3274;}
	.st3{fill:#FFFFFF;}
</style>
<g id="XMLID_1012_">
	<g id="XMLID_1030_">
		<circle id="XMLID_1032_" class="st0" cx="126" cy="128" r="61.6"/>
	</g>
	<g id="XMLID_1020_">
		<path id="XMLID_1027_" class="st1" d="M225.9,123.5l-16.1-13.9c-1.9-1.6-2.6-4.2-1.7-6.5l7-20.1c1.2-3.5-1-7.1-4.5-7.8l-21-4
			c-2.4-0.4-4.3-2.3-4.7-4.7l-4-20.9c-0.7-3.6-4.4-5.7-7.8-4.5l-20.1,7c-2.3,0.8-4.9,0.1-6.5-1.7l-14-16.1c-2.4-2.8-6.7-2.8-9,0
			l-13.9,16.1c-1.6,1.9-4.2,2.6-6.5,1.7l-20.1-7c-3.5-1.2-7.1,1-7.8,4.5l-4,20.9c-0.4,2.4-2.3,4.3-4.7,4.7l-20.9,4
			c-3.6,0.7-5.7,4.4-4.5,7.8l7,20.1c0.8,2.3,0.1,4.9-1.7,6.5l-16.1,13.9c-2.8,2.4-2.8,6.7,0,9l16.1,13.9c1.9,1.6,2.6,4.2,1.7,6.5
			l-7,20.1c-1.2,3.5,1,7.1,4.5,7.8l20.9,4c2.4,0.4,4.3,2.3,4.7,4.7l4,20.9c0.7,3.6,4.4,5.7,7.8,4.5l20.1-7c2.3-0.8,4.9-0.1,6.5,1.7
			l13.9,16.1c2.4,2.8,6.7,2.8,9,0l13.9-16.1c1.6-1.9,4.2-2.6,6.5-1.7l20.1,7c3.5,1.2,7.1-1,7.8-4.5l4-20.9c0.4-2.4,2.3-4.3,4.7-4.7
			l20.9-4c3.6-0.7,5.7-4.4,4.5-7.8l-7-20.1c-0.8-2.3-0.1-4.9,1.7-6.5l16.1-13.9C228.7,130.2,228.7,125.9,225.9,123.5z M171.5,123.2
			l-19.7,16.6l6.2,25c1.2,4.7-4,8.4-8.1,5.9L128,157l-21.9,13.6c-4.1,2.6-9.2-1.2-8.1-5.9l6.2-25l-19.7-16.6
			c-3.7-3.1-1.7-9.2,3.1-9.5l25.7-1.9l9.7-23.9c1.8-4.5,8.2-4.5,10,0l9.7,23.9l25.7,1.9C173.2,114,175.2,120,171.5,123.2z"/>
		<path id="XMLID_1021_" class="st2" d="M128,233c-3.2,0-6.2-1.4-8.3-3.8l-12.8-14.8c-1.8-2.1-1.6-5.2,0.5-7.1
			c2.1-1.8,5.2-1.6,7.1,0.5l12.8,14.8c0.2,0.3,0.5,0.3,0.7,0.3s0.5-0.1,0.7-0.3l13.9-16.1c2.1-2.4,5.1-3.8,8.3-3.8
			c1.3,0,2.5,0.2,3.7,0.6l20,7c0.1,0,0.2,0.1,0.3,0.1c0.4,0,0.8-0.3,1-0.8l4-20.9c0.8-4.4,4.4-7.9,8.8-8.7l20.9-4
			c0.5-0.1,0.8-0.5,0.8-0.9c0-0.1,0-0.2-0.1-0.3l-0.1-0.3c-0.9-2.6,0.5-5.5,3.1-6.4c2.6-0.9,5.5,0.5,6.4,3.1l0.1,0.3
			c0.4,1.2,0.6,2.4,0.6,3.7c0,5.2-3.7,9.7-8.9,10.7l-20.9,4c-0.5,0.1-0.7,0.4-0.8,0.8l-4,20.9c-1,5.2-5.6,8.9-10.8,8.9
			c-1.2,0-2.5-0.2-3.6-0.6l-20.1-7c-0.1-0.1-0.2-0.1-0.3-0.1c-0.3,0-0.5,0.1-0.7,0.3l-13.9,16.1C134.2,231.6,131.2,233,128,233z
			 M80.9,220.4c-5.2,0-9.7-3.7-10.7-8.9l-4-20.9c-0.1-0.5-0.4-0.7-0.8-0.8l-20.9-4c-5.2-1-8.9-5.6-8.9-10.8c0-1.2,0.2-2.5,0.6-3.6
			l7-20.1c0.1-0.1,0.1-0.2,0.1-0.3c0-0.3-0.1-0.5-0.3-0.7l-16.1-13.9c-2.4-2.1-3.8-5.1-3.8-8.3c0-3.2,1.4-6.2,3.8-8.3l7.3-6.3
			c2.1-1.8,5.2-1.6,7.1,0.5c1.8,2.1,1.6,5.2-0.5,7.1l-7.3,6.3c-0.3,0.2-0.3,0.5-0.3,0.7s0.1,0.5,0.3,0.7l16.1,13.9
			c2.4,2.1,3.8,5.1,3.8,8.3c0,1.3-0.2,2.5-0.6,3.7l-7,20c0,0.1-0.1,0.2-0.1,0.3c0,0.4,0.3,0.8,0.8,0.9l20.9,4
			c4.4,0.8,7.9,4.4,8.7,8.8l4,20.9c0.1,0.7,0.7,0.9,1.3,0.7l9.6-3.4c2.6-0.9,5.5,0.5,6.4,3.1c0.9,2.6-0.5,5.5-3.1,6.4l-9.6,3.3
			C83.4,220.2,82.2,220.4,80.9,220.4z M152.7,176.5c-1.9,0-3.8-0.5-5.4-1.5l-19.3-12l-19.2,12c-1.7,1-3.6,1.6-5.5,1.6
			c-5.7,0-10.4-4.7-10.4-10.4c0-0.8,0.1-1.7,0.3-2.5l5.1-20.6c0.7-2.7,3.4-4.3,6.1-3.7c2.7,0.7,4.3,3.4,3.7,6.1l-5.1,20.6
			c0,0,0,0.1,0,0.2c0,0.2,0.3,0.4,0.4,0.4c0,0,0.1,0,0.2-0.1l21.9-13.6c1.6-1,3.7-1,5.3,0l21.9,13.7c0.1,0,0.1,0,0.2,0
			c0.2,0,0.4-0.2,0.4-0.4c0,0,0-0.1,0-0.1l-6.2-25c-0.5-1.8,0.2-3.8,1.6-5l19.7-16.6c0,0,0,0,0,0c0,0,0,0,0-0.1c0,0,0-0.1,0-0.2
			c0-0.2-0.1-0.5-0.5-0.5l-25.6-1.9c-1.9-0.1-3.6-1.3-4.3-3.1l-9.7-23.9c0-0.1-0.1-0.3-0.4-0.3c-0.2,0-0.3,0.1-0.3,0.2l-9.7,23.9
			c-0.7,1.8-2.4,3-4.3,3.1l-25.7,1.9c-0.3,0-0.4,0.3-0.4,0.4c0,0.1,0,0.1,0.2,0.3l7.9,6.6c2.1,1.8,2.4,4.9,0.6,7
			c-1.8,2.1-4.9,2.4-7,0.6l-7.9-6.6c-2.4-2-3.7-4.9-3.7-7.9c0-5.6,4.2-10,9.7-10.4l22.5-1.6l8.5-21c1.6-3.9,5.4-6.5,9.6-6.5
			c4.2,0,8,2.5,9.6,6.5l8.5,21l22.6,1.6c5.6,0.4,9.7,4.9,9.7,10.5c0,1.8-0.5,3.6-1.4,5.2c-0.3,0.5-0.7,1-1.1,1.4
			c-0.3,0.5-0.7,1-1.1,1.4l-17.3,14.6l5.4,22c0.2,0.8,0.3,1.7,0.3,2.5C163.1,171.9,158.5,176.5,152.7,176.5z M208.4,158.9
			c-2.1,0-4-1.3-4.7-3.4l-0.3-0.9c-0.4-1.2-0.6-2.4-0.6-3.6c0-3.2,1.4-6.2,3.8-8.3l16.1-13.9c0.3-0.3,0.4-0.6,0.4-0.8
			c0-0.2-0.1-0.5-0.3-0.7l-16.1-13.9c-2.4-2.1-3.8-5.1-3.8-8.3c0-1.3,0.2-2.5,0.6-3.7l7-20c0-0.1,0.1-0.2,0.1-0.3
			c0-0.4-0.3-0.8-0.8-0.9l-21-4c-4.4-0.8-7.9-4.4-8.7-8.8l-4-20.9c-0.1-0.7-0.7-0.9-1.3-0.7l-20.1,7c-4.4,1.5-9.1,0.1-11.9-3.2
			l-1-1.2c-1.8-2.1-1.6-5.2,0.5-7.1c2.1-1.8,5.2-1.6,7.1,0.5l1.1,1.2c0.2,0.3,0.6,0.3,0.7,0.3c0.1,0,0.3,0,0.4-0.1l20-7
			c1.2-0.4,2.4-0.6,3.7-0.6c5.2,0,9.7,3.7,10.7,8.9l4,21c0.1,0.5,0.4,0.7,0.8,0.8l21,4c5.2,1,8.9,5.6,8.9,10.8
			c0,1.2-0.2,2.5-0.6,3.6l-7,20.1c-0.1,0.1-0.1,0.2-0.1,0.3c0,0.3,0.1,0.5,0.3,0.7l16.1,13.9c2.4,2.1,3.8,5.1,3.8,8.3
			c0,3.2-1.4,6.3-3.9,8.4L213,150.2c-0.3,0.2-0.3,0.6-0.3,0.7c0,0.1,0,0.3,0.1,0.4l0.3,0.9c0.9,2.6-0.5,5.5-3.1,6.4
			C209.5,158.8,208.9,158.9,208.4,158.9z M47.5,106.9c-2.1,0-4-1.3-4.7-3.4l-6.6-18.9c-0.4-1.2-0.6-2.4-0.6-3.7
			c0-5.2,3.7-9.7,8.9-10.7l20.9-4c0.5-0.1,0.7-0.4,0.8-0.8l4-20.9c1-5.2,5.6-8.9,10.8-8.9c1.2,0,2.5,0.2,3.6,0.6l20.1,7
			c0.1,0.1,0.2,0.1,0.3,0.1c0.3,0,0.5-0.1,0.7-0.3l13.9-16.1c2.1-2.4,5.1-3.8,8.3-3.8c3,0,5.9,1.3,8,3.4c1.9,2,1.8,5.2-0.2,7.1
			c-2,1.9-5.2,1.8-7.1-0.2c-0.2-0.2-0.5-0.3-0.7-0.3c-0.2,0-0.5,0.1-0.7,0.3l-13.9,16.1c-2.1,2.4-5.1,3.8-8.3,3.8
			c-1.3,0-2.5-0.2-3.7-0.6l-20-7c-0.1,0-0.2-0.1-0.3-0.1c-0.4,0-0.8,0.3-1,0.8l-4,20.9c-0.8,4.4-4.4,7.9-8.8,8.7l-20.9,4
			c-0.5,0.1-0.8,0.5-0.8,0.9c0,0.1,0,0.2,0.1,0.3l6.6,19c0.9,2.6-0.5,5.5-3.1,6.4C48.6,106.8,48.1,106.9,47.5,106.9z"/>
	</g>
	<g id="XMLID_1018_">
		<path id="XMLID_1019_" class="st3" d="M123.9,138.1c-1.2,0-2.3-0.6-3-1.7c-1-1.6-0.5-3.8,1.1-4.8l14.5-8.9c1.6-1,3.8-0.5,4.8,1.1
			s0.5,3.8-1.1,4.8l-14.5,8.9C125.1,137.9,124.5,138.1,123.9,138.1z"/>
	</g>
	<g id="XMLID_1013_">
		<path id="XMLID_1014_" class="st3" d="M63.7,104c0,0-0.1,0-0.1,0c-1.9-0.1-3.4-1.7-3.4-3.6l0.2-6.3c0-1.2,0.1-3.7,2-5.4
			c1.6-1.5,3.7-1.6,4.9-1.7c1.5-0.1,3-0.2,4.3-0.4c1.9-0.2,3.7,1.1,3.9,3c0.2,1.9-1.1,3.7-3,3.9c-1.5,0.2-3.1,0.3-4.8,0.4
			c-0.1,0-0.2,0-0.3,0c0,0.1,0,0.2,0,0.4l-0.2,6.3C67.1,102.6,65.6,104,63.7,104z M81.8,91.2c-1.4,0-2.7-0.8-3.2-2.2
			c-0.7-1.8,0.2-3.8,1.9-4.6c0.6-0.2,1.1-0.5,1.7-0.8c4.1-2,7.3-5,9.1-8.5c0.9-1.7,3-2.4,4.7-1.5c1.7,0.9,2.4,3,1.5,4.7
			c-2.5,4.8-6.8,8.9-12.3,11.6c-0.7,0.3-1.4,0.7-2.1,0.9C82.7,91.1,82.2,91.2,81.8,91.2z M99.3,71.8c-1.1,0-2.2-0.5-2.9-1.5
			c-1.1-1.6-0.7-3.8,0.9-4.9c1.9-1.3,4-2,5.7-2.5c4.1-1.2,8.3-1.8,12.6-1.9c1.9-0.1,3.5,1.5,3.6,3.4c0.1,1.9-1.5,3.5-3.4,3.6
			c-3.7,0.1-7.3,0.7-10.9,1.7c-1.1,0.3-2.6,0.8-3.7,1.5C100.6,71.6,99.9,71.8,99.3,71.8z"/>
	</g>
</g>
</svg>
