<?xml version="1.0" encoding="utf-8"?>
<!-- Generator: Adobe Illustrator 19.0.0, SVG Export Plug-In . SVG Version: 6.00 Build 0)  -->
<svg version="1.1" id="Layer_1" xmlns="http://www.w3.org/2000/svg" xmlns:xlink="http://www.w3.org/1999/xlink" x="0px" y="0px"
	 viewBox="0 0 256 256" style="enable-background:new 0 0 256 256;" xml:space="preserve">
<style type="text/css">
	.st0{fill:#5E9FA5;}
	.st1{fill:#2A3274;}
	.st2{fill:#FFFFFF;}
</style>
<g id="XMLID_940_">
	<g id="XMLID_946_">
		<g id="settings_3_">
			<g id="XMLID_947_">
				<path id="XMLID_954_" class="st0" d="M201.7,138.6c0-3,1-6,1-10.1c0-4,0-7-1-10.1l21.1-17.1c2-2,2-4,1-6l-20.1-35.2
					c-1-1-3-2-6-1l-25.1,10.1c-5-4-11.1-7-17.1-10.1l-4-26.1c1-3-2-5-4-5h-40.2c-2,0-5,2-5,4l-4,27.1c-6,2-11.1,6-17.1,10.1L57,59.2
					c-3-1-5,0-7,2L29.9,96.3c-1,1,0,4,2,6L53,118.5c0,3-1,6-1,10.1c0,4,0,7,1,10.1l-21.1,17.1c-2,2-2,4-1,6L51,196.8c1,1,3,2,6,1
					l25.1-10.1c5,4,11.1,7,17.1,10.1l4,26.1c0,2,2,4,5,4h40.2c2,0,5-2,5-4l4-26.1c6-3,12.1-6,17.1-10.1l25.1,10.1c2,1,5,0,6-2
					l20.1-35.2c1-2,1-5-1-6L201.7,138.6z M127.4,163.7c-19.1,0-35.2-16.1-35.2-35.2s16.1-35.2,35.2-35.2s35.2,16.1,35.2,35.2
					S146.5,163.7,127.4,163.7z"/>
				<path id="XMLID_948_" class="st1" d="M148.5,233h-40.2c-5.4,0-9.7-3.8-10-8.6l-3.6-23.3c-4.6-2.3-9.2-4.7-13.3-7.7
					c-2.4,0.6-4.9-0.7-5.8-3c-1-2.6,0.2-5.5,2.8-6.5l2-0.8c1.7-0.7,3.6-0.4,5,0.7c4.6,3.7,10.2,6.5,16.2,9.5
					c1.5,0.7,2.5,2.1,2.7,3.7l4,25.9c0,0,0.1,0,0.1,0h40c0.1,0,0.2-0.1,0.3-0.2l4-25.7c0.2-1.6,1.3-3,2.7-3.7c6-3,11.6-5.8,16.2-9.5
					c1.4-1.1,3.3-1.4,5-0.7l0.9,0.4c2.6,1,3.8,3.9,2.8,6.5c-0.7,1.9-2.5,3-4.3,3.1c-4.3,3.1-9,5.6-13.8,8l-3.6,23.3
					C158.1,229.2,152.9,233,148.5,233z M54.6,203.3c-2.8,0-5.3-1-7.2-2.9c-0.3-0.3-0.6-0.7-0.8-1.1l-20.1-35.2
					c0-0.1-0.1-0.2-0.1-0.2c-0.8-1.6-1.2-3.2-1.2-4.7c0-1.8,0.5-4.5,3.1-7.1c0.1-0.1,0.3-0.2,0.4-0.4l18.7-15.1
					c-0.4-2.6-0.4-5.2-0.4-8.1c0-2.5,0.3-4.7,0.6-6.5c0.1-0.4,0.1-0.8,0.2-1.2l-18.9-14.4c-0.2-0.1-0.3-0.3-0.5-0.4
					c-2.4-2.4-3.9-5.6-3.9-8.4c0-1.5,0.4-2.9,1.2-4l5.1-9c1.4-2.4,4.4-3.2,6.8-1.9c2.4,1.4,3.2,4.4,1.9,6.8l-4.8,8.4
					c0.1,0.2,0.3,0.5,0.5,0.7L56,114.5c1.2,0.9,2,2.4,2,4c0,1.8-0.3,3.5-0.5,5.1c-0.3,1.7-0.5,3.2-0.5,5c0,3.7,0,6.2,0.7,8.5
					c0.7,2,0,4.2-1.6,5.5l-20.8,16.9c0,0,0,0,0,0l19.4,33.9c0.1,0,0.3,0,0.6-0.1l4.4-1.8c2.6-1,5.5,0.2,6.5,2.8s-0.2,5.5-2.8,6.5
					l-4.6,1.8c-0.1,0-0.2,0.1-0.3,0.1C57.3,203,55.9,203.3,54.6,203.3z M201.5,203.2c-1.3,0-2.6-0.3-3.8-0.8l-5.5-2.2
					c-2.6-1-3.8-3.9-2.8-6.5c1-2.6,3.9-3.8,6.5-2.8l5.6,2.2l19.9-34.8c0,0,0,0,0,0l-22.5-15.7c-1.3-0.9-2.1-2.5-2.1-4.1
					c0-1.8,0.3-3.5,0.5-5.1c0.3-1.7,0.5-3.2,0.5-5c0-3.7,0-6.2-0.7-8.5c-0.7-2,0-4.2,1.6-5.5l20.8-16.9c0,0,0,0,0,0L200,63.7
					c-0.1,0-0.3,0-0.6,0.1l-25,10c-1.7,0.7-3.6,0.4-5-0.7c-4.6-3.7-10.2-6.5-16.2-9.5c-1.5-0.7-2.5-2.1-2.7-3.7l-0.3-2.1
					c-0.4-2.7,1.5-5.3,4.2-5.7c2.6-0.4,5,1.2,5.6,3.7c4.6,2.3,9.1,4.7,13.3,7.7l22.5-9c0.1,0,0.2-0.1,0.3-0.1
					c4.2-1.4,8.4-0.5,11.1,2.2c0.3,0.3,0.6,0.7,0.8,1.1l20.1,35.2c0,0.1,0.1,0.2,0.1,0.2c0.8,1.6,1.2,3.2,1.2,4.7
					c0,1.8-0.5,4.5-3.1,7.1c-0.1,0.1-0.3,0.2-0.4,0.4l-18.7,15.1c0.4,2.6,0.4,5.2,0.4,8.1c0,2.5-0.3,4.7-0.6,6.5
					c-0.1,0.4-0.1,0.7-0.2,1.1l20.5,14.3c2.5,1.5,4,4.2,4,7.5c0,1.7-0.4,3.5-1.2,5c0,0.1-0.1,0.2-0.1,0.2l-20,35.1
					C208.6,201.2,205.1,203.2,201.5,203.2z M127.4,168.7c-21.8,0-40.2-18.4-40.2-40.2s18.4-40.2,40.2-40.2
					c15.3,0,29.5,9.1,36.3,23.1c1.2,2.5,0.1,5.5-2.3,6.7c-2.5,1.2-5.5,0.1-6.7-2.3c-5.1-10.6-15.8-17.5-27.3-17.5
					c-16.4,0-30.2,13.8-30.2,30.2s13.8,30.2,30.2,30.2c14.8,0,27.9-11.5,29.9-26.3c0.4-2.7,2.9-4.7,5.6-4.3c2.7,0.4,4.7,2.9,4.3,5.6
					C164.5,153.3,147,168.7,127.4,168.7z M45.1,74.6c-0.8,0-1.7-0.2-2.5-0.7c-2.4-1.4-3.2-4.4-1.9-6.8l4.8-8.5
					c0.2-0.4,0.5-0.7,0.8-1.1c1-1,3.9-3.9,8.3-3.9c1.2,0,2.5,0.2,3.8,0.7c0.1,0,0.2,0.1,0.3,0.1l21.6,9c0.4-0.3,0.9-0.6,1.3-0.9
					c3.9-2.7,7.6-5.3,11.8-7.1l3.6-24c0.3-4.8,5.6-8.5,10-8.5h40.2c4.4,0,9.2,3.6,9.2,8.8c0,0.5,0,0.9-0.1,1.4l0.5,3.4
					c0.4,2.7-1.5,5.3-4.2,5.7c-2.7,0.4-5.3-1.5-5.7-4.2l-0.7-4.3c0-0.3-0.1-0.5-0.1-0.8h-39c-0.1,0-0.2,0.1-0.3,0.2l-4,26.7
					c-0.3,1.9-1.6,3.4-3.4,4c-4.1,1.4-7.9,4-12.2,7c-1.2,0.8-2.4,1.7-3.6,2.5c-1.4,0.9-3.2,1.1-4.7,0.5l-23.9-10
					c-0.3-0.1-0.4-0.1-0.5-0.1c-0.1,0-0.4,0.1-0.8,0.5l-4.5,7.8C48.6,73.7,46.9,74.6,45.1,74.6z"/>
			</g>
		</g>
	</g>
	<g id="XMLID_941_">
		<path id="XMLID_942_" class="st2" d="M132.5,185.6C132.5,185.6,132.5,185.6,132.5,185.6c-2.5,0-5.1-0.1-7.8-0.2
			c-1.9-0.1-3.4-1.7-3.3-3.7c0.1-1.9,1.8-3.4,3.7-3.3c2.6,0.1,5.1,0.2,7.5,0.2c1.9,0,3.5,1.6,3.5,3.5
			C136,184.1,134.5,185.6,132.5,185.6z M115,184.5c-0.2,0-0.4,0-0.6-0.1c-7-1.2-12.6-3.4-17.2-6.7c-1.6-1.1-1.9-3.3-0.8-4.9
			s3.3-1.9,4.9-0.8c3.7,2.7,8.3,4.5,14.2,5.5c1.9,0.3,3.2,2.1,2.9,4C118.2,183.3,116.7,184.5,115,184.5z M92,171.6
			c-0.8,0-1.7-0.3-2.3-0.9c-1.1-1-2.3-1.9-3.5-2.9c-0.6-0.5-1.1-0.9-1.7-1.4c-2.7-2.2-5.3-4.6-7.8-7.1c-1.4-1.4-1.3-3.6,0-5
			c1.4-1.4,3.6-1.3,5,0c2.3,2.3,4.7,4.5,7.2,6.5c0.5,0.4,1.1,0.9,1.6,1.3c1.3,1,2.6,2,3.8,3.2c1.4,1.3,1.6,3.5,0.3,4.9
			C93.9,171.2,92.9,171.6,92,171.6z"/>
	</g>
</g>
</svg>
