<?xml version="1.0" encoding="utf-8"?>
<!-- Generator: Adobe Illustrator 19.0.0, SVG Export Plug-In . SVG Version: 6.00 Build 0)  -->
<svg version="1.1" id="Layer_1" xmlns="http://www.w3.org/2000/svg" xmlns:xlink="http://www.w3.org/1999/xlink" x="0px" y="0px"
	 viewBox="0 0 256 256" style="enable-background:new 0 0 256 256;" xml:space="preserve">
<style type="text/css">
	.st0{fill:#F94343;}
	.st1{fill:#2A3274;}
	.st2{fill:#FFFFFF;}
</style>
<g id="XMLID_834_">
	<g id="XMLID_841_">
		<path id="XMLID_851_" class="st0" d="M39.5,46v93.5c0,48.8,39.7,88.5,88.5,88.5s88.5-39.7,88.5-88.5V46c0-5.4-2.4-10.5-6.7-14
			c-4.2-3.4-9.7-4.8-15-3.7c-18.2,3.8-41.9,5.9-66.8,5.9c-24.9,0-48.6-2.1-66.8-5.9C60,28.1,58.8,28,57.5,28c-4.1,0-8.1,1.4-11.3,4
			C42,35.5,39.5,40.6,39.5,46z M143.7,93.2c6.5-6.5,15.1-10.1,24.3-10.1c9.2,0,17.8,3.6,24.3,10.1c4.2,4.2,4.2,11.1,0,15.3
			c-2.1,2.1-4.9,3.2-7.7,3.2c-2.8,0-5.5-1.1-7.7-3.2c-2.4-2.4-5.6-3.7-9-3.7c-3.4,0-6.6,1.3-9,3.7c-4.2,4.2-11.1,4.2-15.3,0
			C139.5,104.3,139.5,97.4,143.7,93.2z M148.3,154.3c4.2-4.2,11.1-4.2,15.3,0c4.2,4.2,4.2,11.1,0,15.3c-9.5,9.5-22.2,14.8-35.6,14.8
			c-13.5,0-26.1-5.2-35.6-14.8c-4.2-4.2-4.2-11.1,0-15.3c4.2-4.2,11.1-4.2,15.3,0c5.4,5.4,12.6,8.4,20.3,8.4
			C135.7,162.7,142.9,159.7,148.3,154.3z M62.4,93.2c13.4-13.4,35.3-13.4,48.7,0c4.2,4.2,4.2,11.1,0,15.3c-2.1,2.1-4.9,3.2-7.7,3.2
			c-2.8,0-5.5-1.1-7.7-3.2c-5-5-13.1-5-18,0c-4.2,4.2-11.1,4.2-15.3,0C58.1,104.3,58.1,97.4,62.4,93.2z"/>
		<path id="XMLID_842_" class="st1" d="M128,233c-22.2,0-43.7-7.9-60.6-22.4c-2.1-1.8-2.3-4.9-0.6-7c1.8-2.1,5-2.3,7-0.6
			c15.1,12.9,34.3,20,54.1,20c28.1,0,54.2-14.1,69.7-37.6c1.5-2.3,4.6-2.9,6.9-1.4c2.3,1.5,2.9,4.6,1.4,6.9
			C188.7,217.2,159.5,233,128,233z M57,197.2c-1.5,0-3-0.7-4-2c-12.1-16.2-18.4-35.5-18.4-55.7V46c0-0.7,0.2-1.4,0.4-2
			c-0.2-0.7-0.2-1.4-0.1-2.1c1-5.4,3.9-10.3,8.1-13.7c5.3-4.3,12.5-6.1,19.2-4.7c17.9,3.7,41.2,5.8,65.7,5.8c0,0,0,0,0,0
			c19,0,37.4-1.2,53.2-3.6c2.7-0.4,5.3,1.5,5.7,4.2s-1.5,5.3-4.2,5.7c-16.2,2.4-35.1,3.7-54.7,3.7c0,0,0,0,0,0
			c-25.2,0-49.3-2.1-67.8-6c-3.8-0.8-7.9,0.2-10.9,2.6c-2.4,2-4,4.7-4.6,7.8c-0.1,0.4-0.2,0.8-0.4,1.2c0.1,0.4,0.1,0.8,0.1,1.2v93.5
			c0,18.1,5.7,35.2,16.5,49.7c1.6,2.2,1.2,5.3-1,7C59.1,196.9,58,197.2,57,197.2z M128,189.4c-14.8,0-28.7-5.8-39.2-16.2
			c-3-3-4.6-7-4.6-11.2c0-4.2,1.6-8.2,4.6-11.2c3-3,7-4.6,11.2-4.6c4.2,0,8.2,1.6,11.2,4.6c0.5,0.5,1.1,1,1.7,1.5
			c2.1,1.8,2.4,4.9,0.7,7c-1.8,2.1-4.9,2.4-7,0.7c-0.8-0.7-1.6-1.4-2.3-2.1c-1.1-1.1-2.6-1.7-4.1-1.7c-1.6,0-3,0.6-4.1,1.7
			c-1.1,1.1-1.7,2.6-1.7,4.1c0,1.6,0.6,3,1.7,4.1c8.6,8.6,20,13.3,32.1,13.3c12.1,0,23.5-4.7,32.1-13.3c1.1-1.1,1.7-2.6,1.7-4.1
			c0-1.6-0.6-3-1.7-4.1c-1.1-1.1-2.6-1.7-4.1-1.7c-1.6,0-3,0.6-4.1,1.7c-6.3,6.3-14.7,9.8-23.7,9.9c0,0,0,0,0,0c-2.8,0-5-2.2-5-5
			c0-2.8,2.2-5,5-5c6.3,0,12.2-2.5,16.7-7c3-3,7-4.6,11.2-4.6c4.2,0,8.2,1.6,11.2,4.6c3,3,4.6,7,4.6,11.2c0,4.2-1.6,8.2-4.6,11.2
			C156.7,183.6,142.8,189.4,128,189.4z M210.9,175.3c-0.6,0-1.2-0.1-1.7-0.3c-2.6-1-3.9-3.8-2.9-6.4c3.5-9.3,5.2-19.1,5.2-29V46
			c0-3.9-1.8-7.6-4.8-10.1c-1.7-1.4-3.7-2.3-5.9-2.7c-2.7-0.5-4.5-3.1-4-5.8c0.5-2.7,3.1-4.5,5.8-4c3.8,0.7,7.3,2.4,10.3,4.8
			c5.4,4.4,8.5,10.9,8.5,17.9v93.5c0,11.2-2,22.1-5.8,32.5C214.9,174.1,213,175.3,210.9,175.3z M184.8,116.7
			c-4.2,0-8.2-1.6-11.2-4.6c-1.5-1.5-3.4-2.3-5.5-2.3c-2.1,0-4,0.8-5.5,2.3c-3,3-7,4.6-11.2,4.6c-4.2,0-8.2-1.6-11.2-4.6
			c-3-3-4.6-7-4.6-11.2c0-4.2,1.6-8.2,4.6-11.2c0,0,0,0,0,0c7.4-7.4,17.3-11.5,27.9-11.5c10.5,0,20.4,4.1,27.9,11.5
			c3,3,4.6,7,4.6,11.2c0,4.2-1.6,8.2-4.6,11.2C193,115,189,116.7,184.8,116.7z M168.1,99.8c4.7,0,9.2,1.8,12.6,5.2
			c1.1,1.1,2.6,1.7,4.1,1.7c1.6,0,3-0.6,4.1-1.7c1.1-1.1,1.7-2.6,1.7-4.1c0-1.6-0.6-3-1.7-4.1c-5.6-5.6-12.9-8.6-20.8-8.6
			s-15.3,3.1-20.8,8.6c-1.1,1.1-1.7,2.6-1.7,4.1s0.6,3,1.7,4.1c1.1,1.1,2.6,1.7,4.1,1.7c1.6,0,3-0.6,4.1-1.7
			C158.9,101.6,163.3,99.8,168.1,99.8z M103.4,116.7c-4.2,0-8.2-1.6-11.2-4.6c-1.5-1.5-3.4-2.3-5.5-2.3c-2.1,0-4,0.8-5.5,2.3
			c-3,3-7,4.6-11.2,4.6s-8.2-1.6-11.2-4.6c-3-3-4.6-7-4.6-11.2c0-4.2,1.6-8.2,4.6-11.2c0,0,0,0,0,0c7.4-7.4,17.3-11.5,27.9-11.5
			s20.4,4.1,27.9,11.5c3,3,4.6,7,4.6,11.2c0,4.2-1.6,8.2-4.6,11.2C111.6,115,107.6,116.7,103.4,116.7z M86.7,99.8
			c4.7,0,9.2,1.8,12.6,5.2c1.1,1.1,2.6,1.7,4.1,1.7s3-0.6,4.1-1.7c1.1-1.1,1.7-2.6,1.7-4.1c0-1.6-0.6-3-1.7-4.1
			c-5.5-5.5-12.9-8.6-20.8-8.6c-7.9,0-15.3,3.1-20.8,8.6c-1.1,1.1-1.7,2.6-1.7,4.1c0,1.6,0.6,3,1.7,4.1c1.1,1.1,2.6,1.7,4.1,1.7
			s3-0.6,4.1-1.7C77.5,101.6,82,99.8,86.7,99.8z"/>
	</g>
	<g id="XMLID_836_">
		<path id="XMLID_837_" class="st2" d="M100.9,56.7c0,0-0.1,0-0.1,0c-2.9-0.1-5.8-0.4-8.6-0.8c-2.7-0.4-5.6-1-8.9-1.9
			c-1.9-0.5-3-2.4-2.5-4.3s2.4-3,4.3-2.5c3.1,0.8,5.8,1.4,8.2,1.7c2.6,0.4,5.2,0.7,7.8,0.7c1.9,0.1,3.4,1.7,3.4,3.6
			C104.3,55.2,102.7,56.7,100.9,56.7z M110.8,56.2c-1.7,0-3.3-1.3-3.5-3.1c-0.2-1.9,1.1-3.7,3.1-3.9c1.1-0.1,2.3-0.3,3.4-0.5
			c1.9-0.3,3.7,0.9,4.1,2.8c0.3,1.9-0.9,3.7-2.8,4.1c-1.2,0.2-2.5,0.4-3.7,0.6C111.1,56.2,111,56.2,110.8,56.2z M74.5,51.4
			c-0.3,0-0.6,0-1-0.1l-16.3-4.7c-1.9-0.5-2.9-2.5-2.4-4.3s2.5-2.9,4.3-2.4l16.3,4.7c1.9,0.5,2.9,2.5,2.4,4.3
			C77.4,50.4,76,51.4,74.5,51.4z"/>
	</g>
</g>
</svg>
