<?xml version="1.0" encoding="utf-8"?>
<!-- Generator: Adobe Illustrator 19.0.0, SVG Export Plug-In . SVG Version: 6.00 Build 0)  -->
<svg version="1.1" id="Layer_1" xmlns="http://www.w3.org/2000/svg" xmlns:xlink="http://www.w3.org/1999/xlink" x="0px" y="0px"
	 viewBox="0 0 256 256" style="enable-background:new 0 0 256 256;" xml:space="preserve">
<style type="text/css">
	.st0{fill:#FCB943;}
	.st1{fill:#2A3274;}
	.st2{fill:#FFFFFF;}
</style>
<g id="XMLID_785_">
	<g id="XMLID_799_">
		<path id="XMLID_805_" class="st0" d="M222.3,195.1l-49.8-49.8c-3.7-3.7-8.5-5.6-13.3-5.6c18.7-27.9,15.7-66-8.8-90.6
			C122.4,21,76.9,21,49,49C21,76.9,21,122.4,49,150.3c24.6,24.6,62.8,27.5,90.6,8.8c0.1,4.8,2,9.6,5.6,13.3l49.8,49.8
			c7.5,7.5,19.8,7.5,27.3,0C229.9,214.8,229.9,202.6,222.3,195.1z M134.7,134.7c-19.3,19.3-50.8,19.3-70.2,0s-19.3-50.8,0-70.2
			s50.8-19.3,70.2,0C154.1,83.9,154.1,115.4,134.7,134.7z"/>
		<path id="XMLID_800_" class="st1" d="M208.7,233c-6.5,0-12.6-2.5-17.2-7.1L141.7,176c-3.8-3.8-6.2-8.7-6.9-14
			c-0.4-2.7,1.6-5.2,4.3-5.6c2.7-0.3,5.3,1.6,5.6,4.3c0.4,3.1,1.8,6,4.1,8.2l49.8,49.8c2.7,2.7,6.3,4.2,10.1,4.2s7.4-1.5,10.1-4.2
			c2.7-2.7,4.2-6.3,4.2-10.1s-1.5-7.4-4.2-10.1L169,148.8c-2.6-2.6-6.1-4.1-9.9-4.2c-1.8,0-3.5-1.1-4.4-2.7s-0.7-3.6,0.3-5.1
			c7.4-11,11.3-23.8,11.3-37.1c0-7-1.1-13.9-3.2-20.5c-0.8-2.6,0.6-5.4,3.2-6.3c2.6-0.8,5.4,0.6,6.3,3.2c2.4,7.6,3.7,15.5,3.7,23.5
			c0,12.8-3.1,25.2-9.1,36.4c3.3,1.2,6.3,3.1,8.9,5.7l49.8,49.8c4.6,4.6,7.1,10.7,7.1,17.2s-2.5,12.6-7.1,17.2
			C221.3,230.5,215.2,233,208.7,233z M99.7,176.3c-20.5,0-39.8-8-54.2-22.4C31,139.4,23,120.2,23,99.6c0-4.6,0.4-9.2,1.2-13.7
			c0.5-2.7,3.1-4.5,5.8-4c2.7,0.5,4.5,3.1,4,5.8c-0.7,3.9-1.1,7.9-1.1,11.9c0,17.8,6.9,34.6,19.5,47.2
			c12.6,12.6,29.3,19.5,47.2,19.5c7.7,0,15.2-1.3,22.4-3.9c2.6-0.9,5.5,0.4,6.4,3c0.9,2.6-0.4,5.5-3,6.4
			C117.1,174.8,108.5,176.3,99.7,176.3z M99.6,154.3c-14.6,0-28.3-5.7-38.6-16c-10.3-10.3-16-24-16-38.6c0-12.2,4.1-24.2,11.7-33.8
			c1.7-2.2,4.9-2.5,7-0.8c2.2,1.7,2.5,4.9,0.8,7C58.4,79.9,55,89.7,55,99.6c0,11.9,4.6,23.1,13,31.6c8.4,8.4,19.6,13,31.6,13
			s23.1-4.6,31.6-13c8.4-8.4,13-19.6,13-31.6c0-11.9-4.6-23.1-13-31.6c-8.4-8.4-19.6-13-31.6-13c-7.5,0-14.9,1.9-21.5,5.5
			c-2.4,1.3-5.5,0.4-6.8-2c-1.3-2.4-0.4-5.5,2-6.8c8-4.4,17.1-6.7,26.3-6.7c14.6,0,28.3,5.7,38.6,16c10.3,10.3,16,24,16,38.6
			c0,14.6-5.7,28.3-16,38.6C128,148.6,114.3,154.3,99.6,154.3z M35.4,72.9c-0.7,0-1.5-0.2-2.2-0.5c-2.5-1.2-3.5-4.2-2.3-6.7
			c3.7-7.5,8.6-14.3,14.6-20.3C59.9,31,79.1,23,99.6,23c20.5,0,39.8,8,54.2,22.4c3.5,3.5,6.7,7.4,9.5,11.5c1.5,2.3,0.9,5.4-1.4,6.9
			c-2.3,1.5-5.4,0.9-6.9-1.4c-2.4-3.6-5.2-6.9-8.2-10C134.2,39.9,117.5,33,99.6,33c-17.8,0-34.6,6.9-47.2,19.5
			c-5.2,5.2-9.4,11.1-12.7,17.6C39,71.9,37.2,72.9,35.4,72.9z"/>
	</g>
	<g id="XMLID_791_">
		<g id="XMLID_792_">
			<path id="XMLID_793_" class="st1" d="M124.1,85.9c-7.4-12.2-18.5-3.7-18.5-3.7c-0.7,0.5-2.1,1-3,1l-3,0c-0.9,0-2.2-0.4-3-1
				c0,0-11.1-8.5-18.5,3.7c-7.4,12.1-4.4,25.4-4.4,25.4c0.5,3.2,2.2,5.4,5.5,5.1c3.2-0.3,10.3-8.7,10.3-8.7c0.6-0.7,1.8-1.3,2.7-1.3
				l17.9,0c0.9,0,2.1,0.6,2.7,1.3c0,0,7,8.5,10.3,8.7c3.2,0.3,5-1.9,5.5-5.1C128.6,111.3,131.5,98,124.1,85.9z M94.4,95.8h-3.8v3.7
				c0,0-0.8,0.6-2.1,0.6c-1.3,0-1.8-0.7-1.8-0.7v-3.6h-3.6c0,0-0.5-0.5-0.6-1.7c-0.1-1.2,0.5-2.2,0.5-2.2h3.8v-3.8
				c0,0,0.8-0.4,1.9-0.4c1.1,0,2,0.5,2,0.5l0,3.8h3.6c0,0,0.6,0.8,0.7,1.8C95.1,94.7,94.4,95.8,94.4,95.8z M112,100
				c-1.7,0-3-1.4-3-3c0-1.7,1.4-3,3-3c1.7,0,3,1.4,3,3C115.1,98.6,113.7,100,112,100z M112,91.6c-1.7,0-3-1.4-3-3c0-1.7,1.4-3,3-3
				c1.7,0,3,1.4,3,3C115.1,90.3,113.7,91.6,112,91.6z M119.6,96.1c-1.7,0-3-1.4-3-3c0-1.7,1.4-3,3-3c1.7,0,3,1.4,3,3
				C122.6,94.8,121.3,96.1,119.6,96.1z"/>
		</g>
	</g>
	<g id="XMLID_786_">
		<path id="XMLID_787_" class="st2" d="M211.9,209.9c-0.9,0-1.8-0.3-2.5-1l-2.6-2.6c-1.4-1.4-1.4-3.6,0-4.9c1.4-1.4,3.6-1.4,4.9,0
			l2.6,2.6c1.4,1.4,1.4,3.6,0,4.9C213.7,209.5,212.8,209.9,211.9,209.9z M202.2,200.2c-0.9,0-1.8-0.3-2.5-1l-12-12
			c-1.4-1.4-1.4-3.6,0-4.9c1.4-1.4,3.6-1.4,4.9,0l12,12c1.4,1.4,1.4,3.6,0,4.9C204,199.8,203.1,200.2,202.2,200.2z M183.1,181.1
			c-0.9,0-1.8-0.3-2.5-1l-12-12c-1.4-1.4-1.4-3.6,0-4.9c1.4-1.4,3.6-1.4,4.9,0l12,12c1.4,1.4,1.4,3.6,0,4.9
			C184.9,180.7,184,181.1,183.1,181.1z"/>
	</g>
</g>
</svg>
