<?xml version="1.0" encoding="utf-8"?>
<!-- Generator: Adobe Illustrator 19.0.0, SVG Export Plug-In . SVG Version: 6.00 Build 0)  -->
<svg version="1.1" id="Layer_1" xmlns="http://www.w3.org/2000/svg" xmlns:xlink="http://www.w3.org/1999/xlink" x="0px" y="0px"
	 viewBox="0 0 256 256" style="enable-background:new 0 0 256 256;" xml:space="preserve">
<style type="text/css">
	.st0{fill:#EC1C24;}
	.st1{fill:#00A14B;}
	.st2{fill:#FFDD15;}
	.st3{fill:#67A3A3;}
	.st4{fill:#2A3274;}
	.st5{fill:#FFFFFF;}
</style>
<g id="XMLID_808_">
	<g id="XMLID_832_">
		<circle id="XMLID_835_" class="st0" cx="166.8" cy="94.9" r="13.4"/>
	</g>
	<g id="XMLID_830_">
		<circle id="XMLID_833_" class="st1" cx="193.6" cy="110.9" r="13.4"/>
	</g>
	<g id="XMLID_829_">
		<circle id="XMLID_831_" class="st2" cx="166.8" cy="125.9" r="13.4"/>
	</g>
	<g id="XMLID_811_">
		<g id="XMLID_812_">
			<path id="XMLID_823_" class="st3" d="M210.1,85.2C183.7,41.8,143.9,72,143.9,72c-2.6,2-7.3,3.6-10.6,3.6l-10.7,0
				c-3.2,0-8-1.6-10.6-3.6c0,0-39.8-30.2-66.2,13.2c-26.4,43.4-15.8,90.6-15.8,90.6c1.9,11.6,8,19.3,19.6,18.3
				c11.6-1,36.7-31.2,36.7-31.2c2.1-2.5,6.4-4.5,9.6-4.5l63.9,0c3.2,0,7.6,2,9.6,4.5c0,0,25.1,30.2,36.7,31.2
				c11.6,1,17.7-6.8,19.6-18.3C225.9,175.8,236.5,128.6,210.1,85.2z M104,120.5H90.3v13.2c0,0-2.9,2.2-7.4,2.2
				c-4.5-0.1-6.5-2.4-6.5-2.4v-12.9H63.4c0,0-1.6-1.7-2-6c-0.4-4.4,1.8-7.9,1.8-7.9h13.7V92.9c0,0,2.8-1.5,6.9-1.4
				c4.1,0.1,7,1.7,7,1.7l-0.1,13.4h12.9c0,0,2.3,2.9,2.4,6.4C106.3,116.5,104,120.5,104,120.5z M166.8,135.6
				c-6,0-10.8-4.9-10.8-10.8c0-6,4.8-10.8,10.8-10.8c6,0,10.8,4.8,10.8,10.8C177.7,130.7,172.8,135.6,166.8,135.6z M166.8,105.7
				c-6,0-10.8-4.8-10.8-10.8c0-6,4.8-10.8,10.8-10.8c6,0,10.8,4.8,10.8,10.8C177.7,100.9,172.8,105.7,166.8,105.7z M193.8,121.7
				c-6,0-10.8-4.8-10.8-10.8c0-6,4.8-10.8,10.8-10.8c6,0,10.8,4.8,10.8,10.8C204.7,116.9,199.8,121.7,193.8,121.7z"/>
			<path id="XMLID_813_" class="st4" d="M47.8,199.2c-12,0-20.3-8.2-22.6-22.5c-0.3-1.4-2.2-10.8-2.2-24.6
				c0-17.8,3.2-44.3,18.6-69.5c3.7-6,7.8-11.1,12.4-15.1c2.1-1.8,5.2-1.6,7.1,0.5c1.8,2.1,1.6,5.2-0.5,7.1
				c-3.8,3.3-7.3,7.5-10.4,12.7C36,111.1,33,135.7,33,152.1c0,13.6,2,22.5,2,22.6c0,0.1,0,0.2,0.1,0.3c2.3,14.2,10.2,14.2,12.8,14.2
				c0.5,0,1,0,1.5-0.1c0.5,0,2-0.3,5-2.2c2.3-1.5,5.4-0.8,6.9,1.6c1.5,2.3,0.8,5.4-1.6,6.9c-3.6,2.3-6.7,3.5-9.5,3.7
				C49.4,199.2,48.6,199.2,47.8,199.2z M201.4,197.5c-0.8,0-1.5-0.2-2.3-0.5c-13.3-6.8-32.5-29.8-33.3-30.8c-1.1-1.3-4-2.7-5.8-2.7
				l-63.9,0c-1.8,0-4.7,1.4-5.8,2.7c-0.3,0.3-6.6,7.9-14.4,15.7c-2,1.9-5.1,1.9-7.1,0c-1.9-2-1.9-5.1,0-7.1
				c7.5-7.5,13.7-14.9,13.8-15c3-3.6,8.8-6.3,13.5-6.3l63.9,0c4.7,0,10.5,2.7,13.5,6.3c5.2,6.2,20.7,23.4,30.2,28.3
				c2.5,1.3,3.4,4.3,2.2,6.7C204.9,196.5,203.2,197.5,201.4,197.5z M219.8,194.6c-1.3,0-2.5-0.5-3.5-1.4c-2-1.9-2-5.1-0.1-7.1
				c2.3-2.4,3.9-6.2,4.7-11.1c0-0.1,0-0.2,0.1-0.3c0-0.1,2-9.1,2-22.6c0-16.5-3-41-17.2-64.3c-8.5-14-19.3-21-32-21
				c-14.5,0-26.8,9.1-26.9,9.2c-3.4,2.6-9.3,4.6-13.6,4.6l-10.7,0c-4.3,0-10.2-2-13.6-4.6c-0.1-0.1-12.4-9.2-26.9-9.2
				c-2.1,0-4.2,0.2-6.3,0.6c-2.7,0.5-5.3-1.2-5.9-4s1.2-5.3,4-5.9c2.6-0.5,5.4-0.8,8.2-0.8c17.9,0,32.4,10.8,33,11.2
				c1.7,1.3,5.4,2.5,7.5,2.5l10.7,0c2.2,0,5.8-1.2,7.6-2.6c0.6-0.5,15-11.2,33-11.2c11.3,0,27.5,4.5,40.5,25.8
				c15.4,25.3,18.6,51.8,18.6,69.5c0,13.8-1.9,23.3-2.2,24.7c-1.1,7-3.6,12.5-7.4,16.3C222.4,194.1,221.1,194.6,219.8,194.6z
				 M83.1,140.9l-0.3,0c-6.4-0.1-9.6-3.5-10.2-4.1c-0.8-0.9-1.2-2.1-1.2-3.3v-7.9h-7.9c-1.3,0-2.6-0.5-3.6-1.5
				c-0.7-0.7-2.9-3.4-3.4-9c-0.1-0.5-0.1-1.1-0.1-1.6c0-5.1,2.3-9,2.6-9.4c0.9-1.5,2.5-2.3,4.2-2.3h8.7v-8.7c0-1.8,1-3.5,2.6-4.4
				c0.4-0.2,4.1-2.1,9.4-2c5.1,0.2,8.8,2,9.2,2.2c1.7,0.9,2.7,2.6,2.7,4.5l0,8.4h7.4c2.8,0,5,2.2,5,5s-2.2,5-5,5H90.7
				c-1.3,0-2.6-0.5-3.5-1.5s-1.5-2.2-1.5-3.5l0-9.8c-0.6-0.1-1.4-0.2-2.2-0.3l-0.3,0c-0.5,0-1,0-1.4,0.1v10c0,2.8-2.2,5-5,5H66.5
				c-0.1,0.5-0.2,1.1-0.2,1.8c0,0.2,0,0.4,0,0.6c0.1,0.6,0.1,1.1,0.2,1.5h9.8c2.8,0,5,2.2,5,5v10.2c0.4,0.1,0.9,0.2,1.6,0.2h0
				c0.9,0,1.7-0.1,2.3-0.3v-10.1c0-2.8,2.2-5,5-5H104c2.8,0,5,2.2,5,5s-2.2,5-5,5h-8.7v8.2c0,1.6-0.7,3-2,4
				C92.9,138,89,140.9,83.1,140.9z M166.8,140.6c-8.7,0-15.8-7.1-15.8-15.8c0-6.9,4.4-12.7,10.5-14.9c-6.1-2.2-10.5-8.1-10.5-14.9
				c0-8.7,7.1-15.8,15.8-15.8c8.7,0,15.8,7.1,15.8,15.8c0,2.2-0.4,4.3-1.3,6.2c2.9-3.7,7.4-6,12.4-6c8.7,0,15.8,7.1,15.8,15.8
				c0,8.7-7.1,15.8-15.8,15.8c-4.5,0-8.5-1.9-11.4-4.9c0.2,0.9,0.3,1.9,0.3,2.8C182.7,133.5,175.6,140.6,166.8,140.6z M166.8,118.9
				c-3.2,0-5.8,2.6-5.8,5.8s2.6,5.8,5.8,5.8c3.2,0,5.8-2.6,5.8-5.8S170.1,118.9,166.8,118.9z M193.8,105.1c-3.2,0-5.8,2.6-5.8,5.8
				c0,3.2,2.6,5.8,5.8,5.8c3.2,0,5.8-2.6,5.8-5.8C199.7,107.7,197.1,105.1,193.8,105.1z M172.2,109.8c2.3,0.8,4.4,2.2,6.1,4
				c-0.2-0.9-0.3-1.9-0.3-2.9c0-2.2,0.5-4.3,1.3-6.2C177.4,107,175,108.8,172.2,109.8z M166.8,89c-3.2,0-5.8,2.6-5.8,5.8
				c0,3.2,2.6,5.8,5.8,5.8c3.2,0,5.8-2.6,5.8-5.8C172.7,91.7,170.1,89,166.8,89z"/>
		</g>
	</g>
	<g id="XMLID_809_">
		<path id="XMLID_810_" class="st5" d="M51.8,171.8c-0.9,0-1.7-0.3-2.4-1c-4.2-4-5.8-9.4-6.3-13.3c-0.2-1.5-0.3-3.1-0.4-4.8
			c0-1.9,1.5-3.5,3.5-3.5c0,0,0,0,0,0c1.9,0,3.5,1.5,3.5,3.5c0,1.4,0.1,2.7,0.3,3.9c0.4,2.7,1.4,6.5,4.2,9.2
			c1.4,1.3,1.5,3.5,0.1,4.9C53.6,171.4,52.7,171.8,51.8,171.8z"/>
	</g>
</g>
</svg>
