<?xml version="1.0" encoding="utf-8"?>
<!-- Generator: Adobe Illustrator 19.0.0, SVG Export Plug-In . SVG Version: 6.00 Build 0)  -->
<svg version="1.1" id="Layer_1" xmlns="http://www.w3.org/2000/svg" xmlns:xlink="http://www.w3.org/1999/xlink" x="0px" y="0px"
	 viewBox="0 0 256 256" style="enable-background:new 0 0 256 256;" xml:space="preserve">
<style type="text/css">
	.st0{fill:#2A3274;}
	.st1{fill:#FFDA00;}
	.st2{fill:#FF5065;}
	.st3{fill:#FFFFFF;}
</style>
<g id="XMLID_687_">
	<g id="XMLID_694_">
		<g id="XMLID_712_">
			<ellipse id="XMLID_714_" class="st0" cx="126" cy="175.1" rx="42.8" ry="42.9"/>
		</g>
		<g id="XMLID_701_">
			<g id="XMLID_702_">
				<path id="XMLID_709_" class="st1" d="M74.7,176.2c0,29.4,23.9,53.3,53.3,53.3s53.3-23.9,53.3-53.3S157.4,123,128,123
					S74.7,146.9,74.7,176.2z M131.8,143.4c1.7,0.8,2.8,2.6,2.8,4.4v48.7h6.7c2.7,0,4.9,2.2,4.9,4.9c0,2.7-2.2,4.9-4.9,4.9H118
					c-2.7,0-4.9-2.2-4.9-4.9c0-2.7,2.2-4.9,4.9-4.9h6.7V158l-6.8,5.4c-2.1,1.7-5.2,1.3-6.9-0.8c-1.7-2.1-1.3-5.2,0.8-6.9l14.8-11.6
					C128.1,142.8,130.1,142.6,131.8,143.4z"/>
				<path id="XMLID_703_" class="st0" d="M128,234.5c-32.1,0-58.3-26.1-58.3-58.3c0-2.8,2.2-5,5-5s5,2.2,5,5
					c0,26.6,21.7,48.3,48.3,48.3c20.7,0,39.1-13.2,45.7-32.8c0.9-2.6,3.7-4,6.3-3.1c2.6,0.9,4,3.7,3.1,6.3
					C175.2,218.6,153,234.5,128,234.5z M141.3,211.4H118c-5.5,0-9.9-4.5-9.9-9.9s4.5-9.9,9.9-9.9h1.7v-23.1c0-0.1,0-0.2,0-0.3
					c-0.1,0-0.1,0.1-0.2,0.1c-1.4,0.8-3,1.2-4.7,1.2c-3.1,0-5.9-1.4-7.8-3.8c-1.4-1.7-2.1-3.9-2.1-6.1c0-3.1,1.4-5.9,3.8-7.8
					l14.8-11.6c2.9-2.3,7.1-2.8,10.5-1.1c3.4,1.7,5.6,5.2,5.6,8.9v43.7h1.7c5.5,0,9.9,4.5,9.9,9.9S146.8,211.4,141.3,211.4z
					 M125.8,201.4h7.7c-2-0.4-3.5-2.1-3.8-4.1C129.3,199.3,127.8,200.9,125.8,201.4z M124.7,163.4c2.4,0,4.4,1.7,4.9,3.9V148
					l-14.3,11.2c2.3-1,5.1,0,6.3,2.3c0.5,0.8,0.6,1.8,0.6,2.7C122.9,163.7,123.8,163.4,124.7,163.4z M181.2,178.6
					c-2.6,0-4.9-2.1-5-4.8c-1.3-25.7-22.4-45.9-48.2-45.9c-21.5,0-40.6,14.4-46.4,35.1c-0.8,2.7-3.5,4.2-6.2,3.4
					c-2.7-0.8-4.2-3.5-3.4-6.2C79,135.4,102.1,118,128,118c31.1,0,56.7,24.3,58.2,55.4c0.1,2.8-2,5.1-4.7,5.2
					C181.4,178.6,181.3,178.6,181.2,178.6z"/>
			</g>
		</g>
		<g id="XMLID_695_">
			<g id="XMLID_696_">
				<path id="XMLID_700_" class="st2" d="M91,108l31-45.1L98.9,29.5c-1.3-1.9-3.5-3-5.8-3H36.5c-2.6,0-5,1.5-6.3,3.8
					c-1.2,2.3-1,5.1,0.5,7.3L80,108.5c-2.6,1.1-4.4,3.6-4.4,6.5c0,3.9,3.2,7.1,7.1,7.1H91c10.4-7.5,23.2-12,37-12s26.6,4.5,37,12
					h8.4c3.9,0,7.1-3.2,7.1-7.1c0-3-1.8-5.5-4.4-6.5l49.2-70.9c1.5-2.2,1.7-5,0.5-7.3c-1.2-2.3-3.6-3.8-6.3-3.8h-56.6
					c-2.3,0-4.5,1.1-5.8,3L102.7,108H91z"/>
				<path id="XMLID_697_" class="st0" d="M173.4,127.1H165c-1.1,0-2.1-0.3-2.9-1c-6.9-5-14.5-8.3-22.8-10c-2.7-0.5-4.5-3.2-3.9-5.9
					c0.5-2.7,3.2-4.5,5.9-3.9c9.2,1.8,17.7,5.4,25.4,10.7h6.8c1.1,0,2.1-0.9,2.1-2.1c0-1-0.7-1.7-1.3-1.9c-1.4-0.6-2.5-1.8-2.9-3.2
					c-0.4-1.5-0.2-3,0.7-4.3l49.2-70.9c0.2-0.3,0.4-0.8,0.4-1.2c0-0.3-0.1-0.7-0.2-1c0-0.1-0.1-0.2-0.1-0.2c-1.6-2.3-1-5.4,1.3-7
					c2.3-1.6,5.4-1,7,1.3c0.3,0.4,0.5,0.8,0.8,1.3c0.9,1.7,1.4,3.7,1.4,5.6c0,2.5-0.7,4.8-2.2,6.9l-46.6,67.1
					c1.7,2.1,2.6,4.7,2.6,7.5C185.4,121.7,180,127.1,173.4,127.1z M91,127.1h-8.4c-6.6,0-12.1-5.4-12.1-12.1c0-2.8,1-5.4,2.6-7.5
					L26.6,40.4c-1.3-1.9-2.1-4.1-2.1-6.4c-0.1-2.8,2.1-5.1,4.8-5.2c2.7-0.1,5.1,2.1,5.2,4.8c0,0.4,0.1,0.8,0.4,1.1l49.2,70.9
					c0.9,1.2,1.1,2.8,0.7,4.3s-1.5,2.6-2.9,3.2c-0.6,0.2-1.3,0.9-1.3,1.9c0,1.1,0.9,2.1,2.1,2.1h6.8c2.3-1.6,4.8-3.1,7.3-4.4
					c-0.8-0.3-1.5-0.7-2.1-1.3c-1.7,1.8-4.4,2.1-6.5,0.7c-2.3-1.6-2.9-4.7-1.3-7l29.1-42.3L94.8,32.4c-0.4-0.6-1-0.9-1.7-0.9H45.2
					c-2.8,0-5-2.2-5-5s2.2-5,5-5h47.9c3.9,0,7.7,1.9,9.9,5.2L126.1,60c1,1.4,1.2,3.2,0.5,4.7l26.4-38c2.3-3.2,6-5.2,9.9-5.2h43.3
					c2.8,0,5,2.2,5,5s-2.2,5-5,5h-43.3c-0.7,0-1.3,0.3-1.7,0.9l-52.4,75.5c3.5-1,7.2-1.8,10.8-2.2c2.8-0.3,5.2,1.6,5.6,4.4
					c0.3,2.7-1.6,5.2-4.4,5.6c-9.7,1.2-19,4.9-26.9,10.6C93.1,126.8,92.1,127.1,91,127.1z"/>
			</g>
		</g>
	</g>
	<g id="XMLID_689_">
		<path id="XMLID_691_" class="st3" d="M166.7,93.6c-0.7,0-1.3-0.2-1.9-0.6c-1.6-1.1-2.1-3.2-1-4.9c3.1-4.6,5.9-9.4,8.5-14.3
			c0.9-1.7,3-2.4,4.7-1.4s2.4,3,1.4,4.7c-2.7,5.1-5.7,10.1-8.9,14.9C169,93,167.9,93.6,166.7,93.6z M179.9,70c-0.5,0-1-0.1-1.5-0.4
			c-1.7-0.8-2.5-2.9-1.6-4.7l0.3-0.6c2.4-4.9,4.9-10,7.8-14.8c1-1.7,3.2-2.2,4.8-1.2c1.6,1,2.2,3.2,1.2,4.8
			c-2.8,4.5-5.1,9.4-7.5,14.2l-0.3,0.6C182.5,69.3,181.2,70,179.9,70z"/>
	</g>
	<g id="XMLID_688_">
		<ellipse id="XMLID_690_" class="st0" cx="123.3" cy="160.8" rx="6.7" ry="6.2"/>
	</g>
</g>
</svg>
