<?xml version="1.0" encoding="utf-8"?>
<!-- Generator: Adobe Illustrator 19.0.0, SVG Export Plug-In . SVG Version: 6.00 Build 0)  -->
<svg version="1.1" id="Layer_1" xmlns="http://www.w3.org/2000/svg" xmlns:xlink="http://www.w3.org/1999/xlink" x="0px" y="0px"
	 viewBox="0 0 256 256" style="enable-background:new 0 0 256 256;" xml:space="preserve">
<style type="text/css">
	.st0{fill:#B7CFE5;}
	.st1{fill:#2A3274;}
	.st2{fill:#FFFFFF;}
</style>
<g id="XMLID_727_">
	<g id="XMLID_733_">
		<g id="XMLID_745_">
			<g id="XMLID_746_">
				<g id="XMLID_754_">
					<path id="XMLID_756_" class="st0" d="M202.5,77.5l-40.6-40.6c-4.3-4.3-10.1-7.2-17.2-8.5v66.3h66.3
						C209.6,87.5,206.8,81.8,202.5,77.5z"/>
					<path id="XMLID_755_" class="st1" d="M210.9,99.7h-39.5c-2.8,0-5-2.2-5-5s2.2-5,5-5h33c-1.3-3.4-3.1-6.3-5.5-8.7l-40.6-40.6
						c-2.4-2.4-5.2-4.2-8.7-5.5v54.8h1.8c2.8,0,5,2.2,5,5s-2.2,5-5,5h-6.8c-2.8,0-5-2.2-5-5V28.4c0-1.5,0.7-2.9,1.8-3.8
						c1.1-1,2.6-1.3,4.1-1.1c8.1,1.5,14.8,4.8,19.8,9.8L206,73.9c5.1,5.1,8.4,11.7,9.8,19.8c0.3,1.5-0.1,3-1.1,4.1
						C213.8,99,212.4,99.7,210.9,99.7z"/>
				</g>
				<g id="XMLID_747_">
					<path id="XMLID_753_" class="st0" d="M140.5,111.3c-3.5,0-6.4-1.2-8.9-3.6c-2.4-2.4-3.6-5.4-3.6-8.9V28H57.2
						c-3.5,0-6.4,1.2-8.9,3.6c-2.4,2.4-3.6,5.4-3.6,8.9v175c0,3.5,1.2,6.4,3.6,8.9c2.4,2.4,5.4,3.6,8.9,3.6h141.7
						c3.5,0,6.4-1.2,8.9-3.6c2.4-2.4,3.6-5.4,3.6-8.9V111.3H140.5z"/>
					<path id="XMLID_748_" class="st1" d="M198.8,233h-7.4c-2.8,0-5-2.2-5-5s2.2-5,5-5h7.4c2.1,0,3.8-0.7,5.3-2.2
						c1.5-1.5,2.2-3.2,2.2-5.3v-99.2h-13.7c-2.8,0-5-2.2-5-5s2.2-5,5-5h18.7c2.8,0,5,2.2,5,5v104.2c0,4.8-1.7,9-5.1,12.4
						C207.8,231.3,203.7,233,198.8,233z M171.4,233H57.2c-4.8,0-9-1.7-12.4-5.1c-3.4-3.4-5.1-7.6-5.1-12.4v-16c0-2.8,2.2-5,5-5
						s5,2.2,5,5v16c0,2.1,0.7,3.8,2.2,5.3c1.5,1.5,3.2,2.2,5.3,2.2h114.3c2.8,0,5,2.2,5,5S174.2,233,171.4,233z M44.7,184.5
						c-2.8,0-5-2.2-5-5v-139c0-4.8,1.7-9,5.1-12.4c0.4-0.4,0.8-0.8,1.2-1.1c2.1-1.8,5.3-1.5,7,0.6c1.8,2.1,1.5,5.3-0.6,7
						c-0.2,0.2-0.4,0.3-0.6,0.5c-1.5,1.5-2.2,3.2-2.2,5.3v139C49.7,182.2,47.4,184.5,44.7,184.5z M172.6,116.3h-32.1
						c-4.8,0-9-1.7-12.4-5.1c-3.4-3.4-5.1-7.6-5.1-12.4V33H68.5c-2.8,0-5-2.2-5-5s2.2-5,5-5H128c2.8,0,5,2.2,5,5v70.8
						c0,2.1,0.7,3.8,2.2,5.3c1.5,1.5,3.2,2.2,5.3,2.2h32.1c2.8,0,5,2.2,5,5S175.4,116.3,172.6,116.3z"/>
				</g>
			</g>
		</g>
		<g id="XMLID_740_">
			<line id="XMLID_744_" class="st0" x1="70.2" y1="151" x2="181.5" y2="151"/>
			<path id="XMLID_741_" class="st1" d="M181.5,156h-21.4c-2.8,0-5-2.2-5-5s2.2-5,5-5h21.4c2.8,0,5,2.2,5,5S184.3,156,181.5,156z
				 M140.2,156h-70c-2.8,0-5-2.2-5-5s2.2-5,5-5h70c2.8,0,5,2.2,5,5S142.9,156,140.2,156z"/>
		</g>
		<g id="XMLID_734_">
			<line id="XMLID_739_" class="st0" x1="70.2" y1="182.7" x2="181.5" y2="182.7"/>
			<path id="XMLID_735_" class="st1" d="M181.5,187.7h-11.4c-2.8,0-5-2.2-5-5s2.2-5,5-5h11.4c2.8,0,5,2.2,5,5
				S184.3,187.7,181.5,187.7z M150.2,187.7h-30c-2.8,0-5-2.2-5-5s2.2-5,5-5h30c2.8,0,5,2.2,5,5S152.9,187.7,150.2,187.7z
				 M100.2,187.7h-30c-2.8,0-5-2.2-5-5s2.2-5,5-5h30c2.8,0,5,2.2,5,5S102.9,187.7,100.2,187.7z"/>
		</g>
	</g>
	<g id="XMLID_728_">
		<path id="XMLID_729_" class="st2" d="M65.6,119.4c-1.9,0-3.5-1.6-3.5-3.5v-17c0-1.9,1.6-3.5,3.5-3.5s3.5,1.6,3.5,3.5v17
			C69.1,117.8,67.5,119.4,65.6,119.4z M65.6,92.4c-1.9,0-3.5-1.6-3.5-3.5v-17c0-1.9,1.6-3.5,3.5-3.5s3.5,1.6,3.5,3.5v17
			C69.1,90.8,67.5,92.4,65.6,92.4z M65.6,65.4c-1.9,0-3.5-1.6-3.5-3.5v-9.1L59.4,47c-0.8-1.8,0-3.8,1.7-4.6c1.8-0.8,3.8,0,4.6,1.7
			l3,6.5c0.2,0.5,0.3,1,0.3,1.5v9.8C69.1,63.8,67.5,65.4,65.6,65.4z"/>
	</g>
</g>
</svg>
