<svg xmlns="http://www.w3.org/2000/svg" width="967.559" height="967.559" viewBox="0 0 256 256" xmlns:v="https://vecta.io/nano"><path d="M127.345 29.733L43.1 78.35c-1.23 1.08-.435 2.93-.662 4.36v93.795c.32 1.605 2.317 1.842 3.44 2.754l24.18 13.822c1.767.308 2.082-1.858 2.856-2.964l76.312-144.033c.486-1.165 2.004-2.742.667-3.875-5.107-3.42-10.58-6.264-15.867-9.396-2-1.022-3.823-2.447-5.915-3.205-.26-.135-.512.083-.767.124z" fill="#406da2"/><path d="M137.916 73.5c-1.055.868-1.38 2.312-2.116 3.43L74.155 193.52c-.605.825-.23 2.008.722 2.362l47.355 27.398 5.59 3.056c1.278.06 2.224-1.03 3.34-1.506l62.973-36.33c.98-.63.58-1.84.07-2.64l-54.52-111.766a1.4 1.4 0 0 0-1.771-.594z" fill="#32547d"/><path d="M153.69 44.657c-1.386.158-1.59 1.843-2.28 2.79l-11.158 21.126c-.365 1.17.724 2.176 1.07 3.213l55.392 113.254c.335 1 1.595 1.27 2.375.61l13.858-8.034c.988-.85.41-2.32.565-3.457l-.065-94.77c-.175-1.373-1.8-1.63-2.745-2.347l-53.383-30.72c-1.187-.557-2.302-1.505-3.63-1.667z" fill="#233c59"/><g stroke="#191919" fill="none"><path d="M217.24 179.5L128 231l-89.24-51.5v-103L128 25l89.24 51.5z" stroke-dashoffset="100.02282059" stroke-width="8.5"/><g stroke-width="5"><path d="M70.304 197.98l83.533-157.805"/><path d="M198.06 190.8l-59.53-121.897h.19" stroke-linejoin="bevel"/></g></g></svg>