<?xml version="1.0" encoding="utf-8"?>
<!-- Generator: Adobe Illustrator 19.0.0, SVG Export Plug-In . SVG Version: 6.00 Build 0)  -->
<svg version="1.1" id="Layer_1" xmlns="http://www.w3.org/2000/svg" xmlns:xlink="http://www.w3.org/1999/xlink" x="0px" y="0px"
	 viewBox="0 0 256 256" style="enable-background:new 0 0 256 256;" xml:space="preserve">
<style type="text/css">
	.st0{fill:#F943B4;}
	.st1{fill:#2A3274;}
	.st2{fill:#FFFFFF;}
</style>
<g id="XMLID_713_">
	<g id="XMLID_720_">
		<g id="Icons_3_">
			<g id="XMLID_721_">
				<path id="XMLID_726_" class="st0" d="M228,95.4c0-29.8-24.2-54-54-54c-19.5,0-36.5,10.3-46,25.8c-9.5-15.5-26.5-25.8-46-25.8
					c-29.8,0-54,24.2-54,54c0,16.2,7.2,30.8,18.5,40.7l76.5,76.5c1.3,1.3,3.1,2,4.9,2c1.8,0,3.6-0.7,4.9-2l76.5-76.5
					C220.8,126.2,228,111.6,228,95.4z"/>
				<path id="XMLID_722_" class="st1" d="M128,219.6c-3.2,0-6.2-1.2-8.5-3.5l-66.7-66.7c-2-2-2-5.1,0-7.1c2-2,5.1-2,7.1,0l66.7,66.7
					c0.7,0.7,2,0.7,2.8,0l31.7-31.7c2-2,5.1-2,7.1,0c2,2,2,5.1,0,7.1l-31.7,31.7C134.2,218.4,131.2,219.6,128,219.6z M178.7,171.8
					c-1.3,0-2.6-0.5-3.5-1.5c-2-2-2-5.1,0-7.1l30.7-30.7c0.1-0.1,0.2-0.2,0.2-0.2c10.7-9.3,16.8-22.8,16.8-36.9c0-27-22-49-49-49
					c-17.1,0-32.7,8.8-41.7,23.4c-0.9,1.5-2.5,2.4-4.3,2.4l0,0c-1.7,0-3.4-0.9-4.3-2.4c-1.6-2.6-3.4-5-5.5-7.3
					c-1.9-2-1.7-5.2,0.4-7.1c2.1-1.9,5.2-1.7,7.1,0.4c0.8,0.9,1.5,1.8,2.3,2.7c11.1-14,27.9-22.1,46-22.1c32.5,0,59,26.5,59,59
					c0,17-7.3,33.1-20.1,44.3l-30.6,30.6C181.3,171.3,180,171.8,178.7,171.8z M42.2,136.8c-1.4,0-2.7-0.5-3.7-1.6
					C28.5,124.3,23,110.2,23,95.4c0-32.5,26.5-59,59-59c9.3,0,18.2,2.1,26.4,6.3c2.5,1.2,3.5,4.3,2.2,6.7c-1.2,2.5-4.2,3.5-6.7,2.2
					c-6.8-3.4-14.2-5.2-21.9-5.2c-27,0-49,22-49,49c0,12.3,4.6,24,12.9,33.1c1.9,2,1.7,5.2-0.3,7.1
					C44.6,136.4,43.4,136.8,42.2,136.8z"/>
			</g>
		</g>
	</g>
	<g id="XMLID_715_">
		<path id="XMLID_716_" class="st2" d="M143.3,173c-0.9,0-1.8-0.3-2.5-1c-1.4-1.4-1.4-3.6,0-4.9l12-12c1.4-1.4,3.6-1.4,4.9,0
			c1.4,1.4,1.4,3.6,0,4.9l-12,12C145.1,172.7,144.2,173,143.3,173z M162.4,153.9c-0.9,0-1.8-0.3-2.5-1c-1.4-1.4-1.4-3.6,0-4.9l12-12
			c1.4-1.4,3.6-1.4,4.9,0c1.4,1.4,1.4,3.6,0,4.9l-12,12C164.2,153.6,163.3,153.9,162.4,153.9z M181.5,134.9c-0.9,0-1.8-0.3-2.5-1
			c-1.4-1.4-1.4-3.6,0-4.9l12-12c1.4-1.4,3.6-1.4,4.9,0c1.4,1.4,1.4,3.6,0,4.9l-12,12C183.3,134.5,182.4,134.9,181.5,134.9z"/>
	</g>
</g>
</svg>
