<?xml version="1.0" encoding="utf-8"?>
<!-- Generator: Adobe Illustrator 19.0.0, SVG Export Plug-In . SVG Version: 6.00 Build 0)  -->
<svg version="1.1" id="Layer_1" xmlns="http://www.w3.org/2000/svg" xmlns:xlink="http://www.w3.org/1999/xlink" x="0px" y="0px"
	 viewBox="0 0 256 256" style="enable-background:new 0 0 256 256;" xml:space="preserve">
<style type="text/css">
	.st0{fill:#FFF100;}
	.st1{fill:#637ACE;}
	.st2{fill:#2A3274;}
	.st3{fill:#FFFFFF;}
</style>
<g id="XMLID_1031_">
	<g id="XMLID_1050_">
		<circle id="XMLID_1052_" class="st0" cx="134.7" cy="128" r="61.6"/>
	</g>
	<g id="XMLID_1039_">
		<g id="XMLID_1040_">
			<g id="XMLID_1041_">
				<path id="XMLID_1047_" class="st1" d="M211.9,79.5c-0.2-5.3-0.2-10.3-0.2-15.3c0-4.1-3.1-7.2-7.2-7.2c-29.9,0-52.6-8.6-71.5-27
					c-2.9-2.6-7.2-2.6-10,0c-18.9,18.4-41.6,27-71.5,27c-4.1,0-7.2,3.1-7.2,7.2c0,5,0,10-0.2,15.3c-1,50.2-2.4,119.1,81.6,148
					l2.4,0.5l2.4-0.5C214.1,198.6,212.9,129.9,211.9,79.5z M122.3,149.1c-1.4,1.2-3.1,1.9-5,1.9H117c-1.9,0-3.8-1-5-2.4L89.7,124
					l10.8-9.6l17.5,19.4l38.7-36.8l9.8,10.5L122.3,149.1z"/>
				<path id="XMLID_1042_" class="st2" d="M128,233c-0.3,0-0.7,0-1-0.1l-2.4-0.5c-0.2,0-0.4-0.1-0.6-0.2
					c-24.3-8.4-43.5-20.8-57.2-36.9c-1.8-2.1-1.5-5.3,0.6-7c2.1-1.8,5.3-1.5,7,0.6c12.4,14.7,30,26,52.5,33.8l1.1,0.2l1.1-0.2
					c27.3-9.5,46.8-23.7,59.5-43.4c1.5-2.3,4.6-3,6.9-1.5c2.3,1.5,3,4.6,1.5,6.9c-13.8,21.4-35.7,37.4-65,47.6
					c-0.2,0.1-0.4,0.1-0.7,0.2l-2.4,0.5C128.7,233,128.3,233,128,233z M59.4,180.6c-1.8,0-3.5-0.9-4.4-2.6
					c-14.2-26.2-16.2-55.7-16.2-81.1c0-5.9,0.1-11.7,0.2-17.3l0-0.2c0,0,0-0.1,0-0.1c0.2-5.1,0.2-10.2,0.2-15.1
					c0-6.8,5.3-12.2,12.2-12.2c8.5,0,16.5-0.7,23.7-2.2c2.7-0.5,5.3,1.2,5.9,3.9c0.5,2.7-1.2,5.3-3.9,5.9C69.3,61.2,60.6,62,51.5,62
					c-1.3,0-2.2,0.9-2.2,2.2c0,5,0,10.1-0.2,15.5l0,0.1c-0.1,5.5-0.2,11.2-0.2,17.1c0,24.2,1.8,52.2,14.9,76.4
					c1.3,2.4,0.4,5.5-2,6.8C61,180.4,60.2,180.6,59.4,180.6z M201.9,169.2c-0.6,0-1.2-0.1-1.9-0.4c-2.6-1-3.8-3.9-2.8-6.5
					c8.7-21.8,9.9-45.5,9.9-65.8c0-5.8-0.1-11.7-0.2-16.9c-0.2-5.4-0.2-10.5-0.2-15.5c0-1.3-0.9-2.2-2.2-2.2c-31.2,0-55-9-74.9-28.4
					c-0.6-0.5-1.2-0.6-1.6-0.6s-1,0.1-1.6,0.6c-8.9,8.7-18.5,15.1-29.2,19.8c-2.5,1.1-5.5-0.1-6.6-2.6c-1.1-2.5,0.1-5.5,2.6-6.6
					c9.6-4.2,18.2-10,26.2-17.8c0,0,0.1-0.1,0.1-0.1c2.3-2.1,5.3-3.3,8.4-3.3s6.1,1.2,8.4,3.3c0,0,0.1,0.1,0.1,0.1
					c17.9,17.5,39.5,25.6,68,25.6c6.8,0,12.2,5.3,12.2,12.2c0,4.9,0,9.9,0.2,15.1c0,0,0,0.1,0,0.1c0.1,5.2,0.2,11.2,0.2,17.1
					c0,21.2-1.3,46.1-10.6,69.5C205.8,168,203.9,169.2,201.9,169.2z M117.2,156H117c-3.3,0-6.6-1.5-8.8-4.1L86,127.3
					c-0.9-1-1.4-2.3-1.3-3.6c0.1-1.3,0.7-2.6,1.7-3.5l10.8-9.6c2.1-1.8,5.2-1.7,7,0.4l14,15.6l35-33.3c1-0.9,2.2-1.4,3.6-1.4
					c1.3,0,2.6,0.6,3.5,1.6l7.8,8.3c1.9,2,1.8,5.2-0.2,7.1c-2,1.9-5.2,1.8-7.1-0.2l-4.3-4.7l-35.1,33.4c-1,0.9-2.3,1.4-3.6,1.4
					c-1.3-0.1-2.6-0.6-3.5-1.6l-14.1-15.7l-3.3,2.9l18.9,20.9c0,0,0.1,0.1,0.1,0.2c0.3,0.3,0.8,0.6,1.2,0.6h0.2c0.4,0,1-0.1,1.7-0.7
					l31.7-29.8c2-1.9,5.2-1.8,7.1,0.2c1.9,2,1.8,5.2-0.2,7.1l-31.8,29.9c-0.1,0.1-0.1,0.1-0.2,0.2C123.1,154.9,120.2,156,117.2,156z
					"/>
			</g>
		</g>
	</g>
	<g id="XMLID_1033_">
		<path id="XMLID_1034_" class="st3" d="M131.9,202.8C131.9,202.8,131.9,202.8,131.9,202.8c-0.2,0-0.4,0-0.6,0
			c-1.9,0-3.5-1.6-3.4-3.6c0-1.9,1.6-3.4,3.6-3.4l0.4,0c0,0,0,0,0,0c1.6,0,3.2-0.2,4.8-0.6c1.9-0.4,3.8,0.7,4.2,2.6
			c0.5,1.9-0.7,3.8-2.6,4.2C136.2,202.6,134,202.8,131.9,202.8z M146.7,198.3c-1.2,0-2.4-0.6-3-1.7c-1-1.7-0.4-3.8,1.2-4.8
			c2.3-1.4,4.7-3.1,7.3-5.2c1.8-1.5,3.6-3.1,5.4-4.8c1.4-1.3,3.6-1.3,4.9,0.1c1.3,1.4,1.3,3.6-0.1,4.9c-1.9,1.8-3.8,3.5-5.8,5.1
			c-2.9,2.4-5.6,4.3-8.2,5.9C147.9,198.1,147.3,198.3,146.7,198.3z M166.9,180.5c-0.8,0-1.6-0.3-2.3-0.8c-1.5-1.3-1.7-3.5-0.4-4.9
			c3.5-4.2,6.7-8.7,9.5-13.3c1-1.7,3.1-2.2,4.8-1.2c1.7,1,2.2,3.1,1.2,4.8c-3,5-6.4,9.8-10.2,14.3
			C168.9,180.1,167.9,180.5,166.9,180.5z M181.4,157.8c-0.5,0-1-0.1-1.4-0.3c-1.8-0.8-2.5-2.9-1.7-4.6l0.1-0.3
			c0.3-0.6,0.6-1.3,0.9-1.9c2.2-4.8,4.4-9.8,8.8-13.4c1.5-1.2,3.7-1,4.9,0.5s1,3.7-0.5,4.9c-3.1,2.6-4.9,6.6-6.9,10.9
			c-0.3,0.7-0.6,1.3-0.9,2l-0.1,0.2C184,157.1,182.7,157.8,181.4,157.8z"/>
	</g>
</g>
</svg>
