<?xml version="1.0" encoding="utf-8"?>
<!-- Generator: Adobe Illustrator 19.0.0, SVG Export Plug-In . SVG Version: 6.00 Build 0)  -->
<svg version="1.1" id="Layer_1" xmlns="http://www.w3.org/2000/svg" xmlns:xlink="http://www.w3.org/1999/xlink" x="0px" y="0px"
	 viewBox="0 0 256 256" style="enable-background:new 0 0 256 256;" xml:space="preserve">
<style type="text/css">
	.st0{fill:#62E831;}
	.st1{fill:#2A3274;}
	.st2{fill:#31E865;}
	.st3{fill:#31C5E8;}
	.st4{fill:#B1EA00;}
	.st5{fill:#FFFFFF;}
</style>
<g id="XMLID_757_">
	<g id="XMLID_766_">
		<g id="XMLID_780_">
			<rect id="XMLID_784_" x="28" y="30.5" class="st0" width="90" height="90"/>
			<path id="XMLID_781_" class="st1" d="M118,125.6H28c-2.8,0-5-2.2-5-5v-70c0-2.8,2.2-5,5-5s5,2.2,5,5v65h84.5c0.2,0,0.4,0,0.5,0
				c2.8,0,5,2.2,5,5v0.1C123,123.3,120.8,125.6,118,125.6z M118,105.5c-2.8,0-5-2.2-5-5v-65H28.4c-0.1,0-0.3,0-0.4,0
				c-2.8,0-5-2.2-5-5v0c0-2.8,2.2-5,5-5h90c2.8,0,5,2.2,5,5v70C123,103.3,120.8,105.5,118,105.5z"/>
		</g>
		<g id="XMLID_775_">
			<rect id="XMLID_779_" x="28" y="137.9" class="st2" width="90" height="90"/>
			<path id="XMLID_776_" class="st1" d="M118,232.9H28c-2.8,0-5-2.2-5-5v-70c0-2.8,2.2-5,5-5s5,2.2,5,5v65h84.5c0.2,0,0.4,0,0.5,0
				c2.8,0,5,2.2,5,5v0.1C123,230.7,120.8,232.9,118,232.9z M118,212.9c-2.8,0-5-2.2-5-5v-65H28.4c-0.1,0-0.3,0-0.4,0
				c-2.8,0-5-2.2-5-5v0c0-2.8,2.2-5,5-5h90c2.8,0,5,2.2,5,5v70C123,210.6,120.8,212.9,118,212.9z"/>
		</g>
		<g id="XMLID_770_">
			<rect id="XMLID_774_" x="137.1" y="137.9" class="st3" width="90" height="90"/>
			<path id="XMLID_771_" class="st1" d="M227.1,232.9h-90c-2.8,0-5-2.2-5-5v-70c0-2.8,2.2-5,5-5s5,2.2,5,5v65h84.5
				c0.2,0,0.4,0,0.5,0c2.8,0,5,2.2,5,5v0.1C232.1,230.7,229.9,232.9,227.1,232.9z M227.1,212.9c-2.8,0-5-2.2-5-5v-65h-84.6
				c-0.1,0-0.3,0-0.4,0c-2.8,0-5-2.2-5-5v0c0-2.8,2.2-5,5-5h90c2.8,0,5,2.2,5,5v70C232.1,210.6,229.9,212.9,227.1,212.9z"/>
		</g>
		<g id="XMLID_767_">
			<circle id="XMLID_769_" class="st4" cx="182.1" cy="74" r="45.9"/>
			<path id="XMLID_768_" class="st1" d="M182.1,124.9c-28.1,0-50.9-22.8-50.9-50.9c0-5.9,1-11.6,2.9-17.1c0.9-2.6,3.8-4,6.4-3
				c2.6,0.9,4,3.8,3,6.4c-1.6,4.4-2.4,9-2.4,13.7c0,22.6,18.3,40.9,40.9,40.9c22.6,0,40.9-18.3,40.9-40.9s-18.3-40.9-40.9-40.9
				c-11,0-21.4,4.3-29.1,12.2c-1.9,2-5.1,2-7.1,0.1c-2-1.9-2-5.1-0.1-7.1c9.6-9.8,22.5-15.2,36.3-15.2c28.1,0,50.9,22.8,50.9,50.9
				S210.2,124.9,182.1,124.9z"/>
		</g>
	</g>
	<g id="XMLID_762_">
		<path id="XMLID_763_" class="st5" d="M48.3,101.6c-1.9,0-3.5-1.6-3.5-3.5V81.5c0-1.9,1.6-3.5,3.5-3.5s3.5,1.6,3.5,3.5v16.5
			C51.8,100,50.3,101.6,48.3,101.6z M48.3,75c-1.9,0-3.5-1.6-3.5-3.5v-17c0-1.9,1.6-3.5,3.5-3.5s3.5,1.6,3.5,3.5v17
			C51.8,73.5,50.3,75,48.3,75z"/>
	</g>
	<g id="XMLID_758_">
		<path id="XMLID_759_" class="st5" d="M212.3,216.5h-14.5c-1.9,0-3.5-1.6-3.5-3.5s1.6-3.5,3.5-3.5h14.5c1.9,0,3.5,1.6,3.5,3.5
			S214.3,216.5,212.3,216.5z M187.8,216.5h-17c-1.9,0-3.5-1.6-3.5-3.5s1.6-3.5,3.5-3.5h17c1.9,0,3.5,1.6,3.5,3.5
			S189.8,216.5,187.8,216.5z"/>
	</g>
</g>
</svg>
