<?xml version="1.0" encoding="utf-8"?>
<!-- Generator: Adobe Illustrator 19.0.0, SVG Export Plug-In . SVG Version: 6.00 Build 0)  -->
<svg version="1.1" id="Layer_1" xmlns="http://www.w3.org/2000/svg" xmlns:xlink="http://www.w3.org/1999/xlink" x="0px" y="0px"
	 viewBox="0 0 256 256" style="enable-background:new 0 0 256 256;" xml:space="preserve">
<style type="text/css">
	.st0{fill:#49F255;}
	.st1{fill:#2A3274;}
	.st2{fill:#FFFFFF;}
</style>
<g id="XMLID_875_">
	<g id="XMLID_881_">
		<g id="XMLID_882_">
			<path id="XMLID_889_" class="st0" d="M199.9,28.9l-86.5,26.5c-10.5,3-19,13.9-19,24.4v90c0,0,0,1.2,0,1.3c0,0-6.3-4.2-20.2-2.3
				c-20.5,2.9-37.1,18.6-37.1,35.2s16.6,26.6,37.1,23.7c20.5-2.9,35.6-18.2,35.6-34.7c0,0,0-70.6,0-77.9c0-7.3,8.8-10.5,8.8-10.5
				l76.5-24c0,0,8.5-2.8,8.5,5s0,62.5,0,62.5s0,0,0,0c0,0-7.8-4.5-21.8-2.8c-20.5,2.5-37.1,17.9-37.1,34.4c0,16.5,16.6,27,37.1,24.5
				c20.5-2.5,37.1-17.9,37.1-34.4V42.5C218.9,32,210.4,26,199.9,28.9z"/>
			<path id="XMLID_883_" class="st1" d="M73.3,232.8c-2.5,0-4.6-1.9-5-4.4c-0.3-2.7,1.6-5.2,4.4-5.6c0.3,0,0.6-0.1,0.9-0.1
				c17.5-2.5,31.3-15.5,31.3-29.7v-77.9c0-8.6,7.6-13.6,12.1-15.2c0.1,0,0.1,0,0.2-0.1l2.7-0.9c2.6-0.8,5.4,0.6,6.3,3.3
				c0.8,2.6-0.6,5.4-3.3,6.3l-2.6,0.8c-0.5,0.2-5.4,2.3-5.4,5.7V193c0,19.4-17.1,36.4-39.9,39.6c-0.3,0-0.7,0.1-1.1,0.1
				C73.7,232.8,73.5,232.8,73.3,232.8z M53.5,230.9c-0.6,0-1.2-0.1-1.7-0.3C39.5,225.9,32.1,216,32.1,204
				c0-18.9,18.6-36.9,41.4-40.1c2.7-0.4,5.3-0.6,7.8-0.6c3.2,0,5.9,0.3,8.1,0.8v-37.7c0-2.8,2.2-5,5-5s5,2.2,5,5v44.7
				c0,1.9-1,3.7-2.7,4.5c-1.7,0.8-3.6,0.7-5.1-0.4c-0.4-0.2-3.8-2-10.4-2c-2,0-4.2,0.2-6.4,0.5c-18.1,2.6-32.8,16.1-32.8,30.2
				c0,7.8,4.8,14.1,13.2,17.2c2.6,1,3.9,3.8,2.9,6.4C57.5,229.6,55.6,230.9,53.5,230.9z M175.8,209.7c-21,0-36.2-12.5-36.2-29.8
				c0-13.6,9.6-27,24.5-34.3c2.5-1.2,5.5-0.2,6.7,2.3c1.2,2.5,0.2,5.5-2.3,6.7c-11.5,5.6-18.9,15.6-18.9,25.3
				c0,11.7,10.8,19.8,26.2,19.8c1.8,0,3.6-0.1,5.4-0.3c18.1-2.2,32.7-15.4,32.7-29.4v-5.7c0-2.8,2.2-5,5-5s5,2.2,5,5v5.7
				c0,18.9-18.6,36.6-41.5,39.4C180.2,209.6,178,209.7,175.8,209.7z M203.5,153.2c-0.8,0-1.7-0.2-2.5-0.7l0,0c0,0-5.5-2.9-15.2-2.5
				c-2.8,0.1-5.1-2-5.2-4.8c-0.1-2.8,2-5.1,4.8-5.2c5.4-0.3,9.8,0.3,13.2,1.1V85.7c0-0.2,0-0.4,0-0.5c-0.1,0-0.1,0-0.2,0
				c-0.7,0-1.5,0.2-1.7,0.3l-54.7,17.2c-2.6,0.8-5.4-0.6-6.3-3.3c-0.8-2.6,0.6-5.4,3.3-6.3l54.7-17.1c0.3-0.1,2.3-0.7,4.7-0.7
				c6.2,0,10.2,4.1,10.2,10.5v62.5c0,1.8-1,3.5-2.5,4.4C205.2,153,204.4,153.2,203.5,153.2z M218.9,149.3c-2.8,0-5-2.2-5-5V42.5
				c0-5.8-3.4-9.3-8.8-9.3c-1.2,0-2.5,0.2-3.8,0.6l-86.4,26.4c-8.4,2.4-15.4,11.4-15.4,19.6v26.6c0,2.8-2.2,5-5,5s-5-2.2-5-5V79.8
				c0-12.8,9.9-25.6,22.6-29.2l86.4-26.4c2.3-0.7,4.5-1,6.7-1c10.9,0,18.8,8.1,18.8,19.3v101.8C223.9,147,221.7,149.3,218.9,149.3z"
				/>
		</g>
	</g>
	<g id="XMLID_876_">
		<path id="XMLID_877_" class="st2" d="M119.9,75.1c-1.6,0-3.1-1.1-3.4-2.8c-0.4-1.9,0.8-3.7,2.7-4.1c5.5-1.2,11-2.5,16.4-3.9
			c1.9-0.5,3.8,0.6,4.3,2.5c0.5,1.9-0.6,3.8-2.5,4.3c-5.5,1.4-11.1,2.8-16.7,3.9C120.4,75.1,120.1,75.1,119.9,75.1z M146.1,68.6
			c-1.5,0-2.9-1-3.4-2.5c-0.5-1.9,0.5-3.8,2.4-4.3c5.4-1.5,10.8-3.2,16.1-5c1.8-0.6,3.8,0.4,4.4,2.2s-0.4,3.8-2.2,4.4
			c-5.4,1.8-10.9,3.5-16.4,5.1C146.7,68.5,146.4,68.6,146.1,68.6z M171.8,60.2c-1.4,0-2.8-0.9-3.3-2.3c-0.7-1.8,0.3-3.8,2.1-4.5
			c5.2-1.9,10.5-4,15.7-6.2c1.8-0.8,3.8,0.1,4.6,1.9c0.8,1.8-0.1,3.8-1.9,4.6c-5.3,2.2-10.6,4.3-16,6.3
			C172.6,60.1,172.2,60.2,171.8,60.2z"/>
	</g>
</g>
</svg>
