<?xml version="1.0" encoding="utf-8"?>
<!-- Generator: Adobe Illustrator 19.0.0, SVG Export Plug-In . SVG Version: 6.00 Build 0)  -->
<svg version="1.1" id="Layer_1" xmlns="http://www.w3.org/2000/svg" xmlns:xlink="http://www.w3.org/1999/xlink" x="0px" y="0px"
	 viewBox="0 0 256 256" style="enable-background:new 0 0 256 256;" xml:space="preserve">
<style type="text/css">
	.st0{fill:#FFF100;}
	.st1{fill:#AFD342;}
	.st2{fill:#2A3274;}
	.st3{fill:#FFFFFF;}
</style>
<g id="XMLID_1051_">
	<g id="XMLID_1070_">
		<circle id="XMLID_1072_" class="st0" cx="128" cy="128" r="61.6"/>
	</g>
	<g id="XMLID_1057_">
		<g id="XMLID_1058_">
			<path id="XMLID_1067_" class="st1" d="M216,137.4c-4-5.6-4-13.2,0-18.8l4.9-7c6.3-8.9,2.2-21.3-8.1-24.9l-8.1-2.8
				c-6.5-2.2-10.9-8.3-11.1-15.2l-0.1-8.6c-0.2-10.9-10.8-18.6-21.2-15.4l-8.2,2.5c-6.6,2-13.8-0.3-17.9-5.8l-5.2-6.9
				c-6.5-8.7-19.6-8.7-26.2,0l-5.1,6.9c-4.1,5.5-11.3,7.8-17.9,5.8l-8.2-2.5c-10.4-3.2-21,4.5-21.2,15.4l-0.1,8.6
				c-0.1,6.9-4.5,13-11.1,15.2l-8.1,2.8c-10.3,3.5-14.3,16-8.1,24.9l4.9,7c4,5.6,4,13.2,0,18.8l-4.9,7c-6.3,8.9-2.2,21.3,8.1,24.9
				l8.1,2.8c6.5,2.2,10.9,8.3,11.1,15.2l0.1,8.6c0.2,10.9,10.8,18.6,21.2,15.4l8.2-2.5c6.6-2,13.8,0.3,17.9,5.8l5.2,6.9
				c6.5,8.7,19.6,8.7,26.2,0l5.1-6.8c4.1-5.5,11.3-7.8,17.9-5.8l8.2,2.5c10.4,3.2,21-4.5,21.2-15.4l0.1-8.6
				c0.1-6.9,4.5-13,11.1-15.2l8.1-2.8c10.3-3.5,14.3-16,8.1-24.9L216,137.4z M149.3,157.3c-3.2,3.9-7.5,6.6-12.4,8
				c-2.2,0.6-3.1,1.7-3,3.9c0.1,2.2,0,4.4,0,6.6c0,1.9-1,3-2.9,3.1c-2.4,0-4.7,0-7.1,0c-2.1,0-3-1.2-3.1-3.2c0-1.6,0-3.2,0-4.8
				c0-3.5-0.2-3.7-3.6-4.2c-4.4-0.7-8.6-1.7-12.6-3.6c-3.1-1.5-3.4-2.3-2.6-5.6c0.7-2.4,1.3-4.9,2.1-7.3c0.9-2.8,1.7-3.1,4.2-1.8
				c4.4,2.3,9.1,3.6,14,4.2c3.1,0.4,6.3,0.1,9.2-1.2c5.5-2.4,6.3-8.7,1.7-12.5c-1.6-1.3-3.4-2.2-5.2-3.1c-4.8-2.1-9.8-3.7-14.3-6.4
				c-7.3-4.4-12-10.4-11.4-19.4c0.6-10.1,6.3-16.4,15.6-19.8c3.8-1.4,3.9-1.3,3.9-5.3c0-1.4,0-2.7,0-4.1c0.1-3,0.6-3.5,3.6-3.6
				c0.9,0,1.9,0,2.8,0c6.4,0,6.4,0,6.4,6.4c0,4.5,0,4.5,4.5,5.2c3.4,0.5,6.8,1.6,9.9,2.9c1.7,0.8,2.4,2,1.9,3.9
				c-0.8,2.8-1.5,5.5-2.4,8.2c-0.8,2.6-1.7,2.9-4.1,1.7c-5-2.4-10.2-3.4-15.7-3.1c-1.5,0.1-2.9,0.3-4.2,0.9
				c-4.8,2.1-5.5,7.3-1.5,10.6c2,1.7,4.4,2.8,6.8,3.9c4.2,1.7,8.5,3.4,12.5,5.6C154.9,130.4,158.3,146.4,149.3,157.3z"/>
			<path id="XMLID_1059_" class="st2" d="M128,233c-3,0-5.9-0.6-8.6-1.8c-2.5-1.1-3.7-4.1-2.6-6.6c1.1-2.5,4.1-3.7,6.6-2.6
				c1.4,0.6,3,1,4.6,1c3.6,0,6.9-1.7,9.1-4.5l5.1-6.8c4-5.4,10.4-8.5,17.1-8.5c2.1,0,4.2,0.3,6.3,0.9l8.2,2.5
				c1.1,0.3,2.2,0.5,3.4,0.5c6.2,0,11.3-5,11.4-11.2l0.1-8.6c0.2-9,6-17,14.4-19.9l8.1-2.8c4.6-1.6,7.7-5.9,7.7-10.8
				c0-0.7-0.1-1.4-0.2-2.1c-0.5-2.7,1.3-5.3,4-5.8c2.7-0.5,5.3,1.3,5.8,4c0.2,1.3,0.4,2.6,0.4,3.9c0,9.2-5.8,17.3-14.4,20.2
				l-8.1,2.8c-4.5,1.5-7.6,5.8-7.7,10.6l-0.1,8.6c-0.2,11.6-9.8,21-21.4,21c-2.1,0-4.2-0.3-6.3-0.9l-8.2-2.5
				c-4.6-1.4-9.6,0.3-12.5,4l-5.1,6.8C141,229.9,134.8,233,128,233z M107.7,217.4c-1.2,0-2.4-0.4-3.4-1.3c-2.1-1.9-4.8-3-7.7-3
				c-1.1,0-2.3,0.2-3.3,0.5l-8.2,2.5c-2.1,0.6-4.2,1-6.3,1c-11.6,0-21.2-9.4-21.4-21l-0.1-8.6c-0.1-4.8-3.2-9-7.7-10.6l-8.1-2.8
				c-8.6-3-14.4-11.1-14.4-20.3c0-4.4,1.3-8.6,3.9-12.2l4.9-7c1.4-1.9,2.1-4.2,2.1-6.5c0-1.8-0.4-3.6-1.3-5.3
				c-1.3-2.4-0.3-5.5,2.1-6.8c2.4-1.3,5.5-0.3,6.8,2.1c1.6,3,2.4,6.5,2.4,9.9c0,4.4-1.3,8.7-3.9,12.3l-4.9,7
				c-1.4,1.9-2.1,4.2-2.1,6.5c0,4.9,3.1,9.2,7.7,10.8l8.1,2.8c8.5,2.9,14.3,10.9,14.4,19.8l0.1,8.6c0.1,6.2,5.2,11.2,11.4,11.2
				c1.1,0,2.3-0.2,3.4-0.5l8.2-2.5c2-0.6,4.2-0.9,6.3-0.9c5.4,0,10.5,2,14.4,5.6c2,1.9,2.2,5,0.3,7.1
				C110.4,216.8,109.1,217.4,107.7,217.4z M127.4,183.9c-1.2,0-2.4,0-3.6,0c-4.7-0.1-7.9-3.4-8-8.1c0,0,0-0.1,0-0.1
				c0-0.8,0-1.6,0-2.3c0-0.6,0-1.2,0-1.9c-3.8-0.6-8.6-1.7-13.3-3.9c-1.9-0.9-5.8-2.8-5.8-7.7c0-1.3,0.3-2.5,0.6-3.7
				c0.7-2.5,1.4-5,2.2-7.6c1.2-4,3.5-6,6.8-6c1.7,0,3.2,0.7,4.5,1.3c3.6,1.9,7.7,3.1,12.3,3.7c2.5,0.3,4.6,0,6.6-0.8
				c1.1-0.5,1.7-1.2,1.7-2.1c0-0.7-0.4-1.4-1.2-2c-1-0.8-2.3-1.6-4.1-2.4c-1.4-0.6-2.8-1.2-4.3-1.8c-3.3-1.3-6.7-2.7-10-4.6
				c-2.4-1.4-3.2-4.4-1.8-6.8c1.4-2.4,4.4-3.2,6.8-1.8c2.7,1.6,5.6,2.7,8.8,4c1.5,0.6,3.1,1.2,4.6,1.9c2.6,1.2,4.6,2.4,6.4,3.8
				c3.1,2.5,4.8,6.1,4.8,9.7c0,4.8-2.9,9.1-7.7,11.2c-3.7,1.6-7.7,2.1-11.9,1.6c-5-0.6-9.4-1.8-13.5-3.7c-0.5,1.6-0.9,3.1-1.3,4.8
				c2.9,1.4,6.4,2.3,11.1,3.1c5.8,0.9,7.7,3.1,7.8,9.1c0,0.8,0,1.6,0,2.4c0,0.2,0,0.5,0,0.7c1,0,2.1,0,3.1,0c0-0.1,0-0.2,0-0.4
				c0-0.7,0-1.4,0-2.1c0-0.7,0-1.3,0-2c0-0.2,0-0.3,0-0.4c0-4.3,2.5-7.4,6.7-8.5c4-1.1,7.3-3.2,9.8-6.3c2.6-3.1,3.9-6.8,3.9-10.7
				c0-2.8-0.7-5.6-2-8.1c-1.3-2.4-0.4-5.5,2.1-6.8c2.4-1.3,5.5-0.4,6.8,2.1c2.1,3.9,3.2,8.3,3.2,12.7c0,6.3-2.1,12.1-6.2,17
				c-3.7,4.5-8.5,7.7-14.3,9.4c0,0.5,0,1,0,1.5c0,0.8,0,1.5,0,2.3c0,0.7,0,1.4,0,2.1c0,4.7-3.2,8-7.8,8.1
				C129.8,183.9,128.6,183.9,127.4,183.9z M138.9,168.9l-5,0.3l5-0.2C138.9,169,138.9,168.9,138.9,168.9z M216,142.4
				c-1.6,0-3.1-0.7-4.1-2.1c-2.6-3.6-3.9-7.9-3.9-12.3s1.3-8.7,3.9-12.3l4.9-7c1.4-1.9,2.1-4.2,2.1-6.5c0-4.9-3.1-9.2-7.7-10.8
				l-8.1-2.8c-8.5-2.9-14.3-10.9-14.4-19.9l-0.1-8.6C188.4,54,183.4,49,177.2,49c-1.1,0-2.3,0.2-3.4,0.5l-8.3,2.5
				c-2,0.6-4.1,0.9-6.3,0.9c-4.4,0-8.6-1.3-12.2-3.8c-2.3-1.6-2.8-4.7-1.2-7c1.6-2.3,4.7-2.8,7-1.2c2.8,2,6.5,2.6,9.8,1.5l8.3-2.5
				c2-0.6,4.1-0.9,6.3-0.9c11.6,0,21.2,9.4,21.4,21l0.1,8.6c0.1,4.8,3.2,9,7.7,10.6l8.1,2.8c8.6,3,14.4,11.1,14.4,20.3
				c0,4.4-1.3,8.6-3.9,12.2l-4.9,7c-1.4,1.9-2.1,4.2-2.1,6.5s0.7,4.6,2.1,6.5c1.6,2.3,1.1,5.4-1.2,7C218,142.1,217,142.4,216,142.4z
				 M136.6,125.6c-0.7,0-1.4-0.1-2-0.4c-1.8-0.8-3.6-1.5-5.4-2.3l-1.4-0.6c-2.5-1.1-5.5-2.5-8.1-4.6c-2.8-2.3-4.4-5.5-4.4-8.8
				c0-4.4,2.7-8.3,7.1-10.2c2.2-1,4.4-1.2,5.9-1.3c0.7,0,1.4-0.1,2.1-0.1c4.8,0,9.5,0.9,13.9,2.7c0.4-1.4,0.9-2.9,1.3-4.4
				c-2.5-1-4.9-1.6-7.3-2c-6.9-1.1-8.7-3.2-8.7-10.2c0-0.5,0-0.9,0-1.4c-0.8,0-1.6,0-2.4,0c-0.1,0-0.2,0-0.3,0v2.7
				c0,6-1.3,7.9-6.9,9.9l-0.3,0.1c-7.9,2.9-11.9,7.8-12.3,15.4c0,0.4,0,0.8,0,1.2c0,0.7,0,1.4,0.1,2.1c0.4,2.7-1.5,5.3-4.2,5.7
				c-2.7,0.4-5.3-1.5-5.7-4.2c-0.2-1.1-0.2-2.3-0.2-3.5c0-0.6,0-1.2,0.1-1.8c0.7-11.6,7.2-19.9,18.9-24.1l0.2-0.1
				c0.1,0,0.2-0.1,0.3-0.1c0-0.2,0-0.3,0-0.4v-4.1c0,0,0-0.1,0-0.1c0.2-5.7,2.8-8.3,8.4-8.5c0.5,0,1.3,0,2.1,0c0.3,0,0.6,0,0.8,0
				c4,0,6.8,0,9.1,2.3c2.3,2.3,2.3,5.1,2.3,9.1c0,0.1,0,0.2,0,0.3c0.1,0,0.2,0,0.3,0c3.7,0.6,7.4,1.7,11.1,3.3
				c3.2,1.5,5.1,4.1,5.1,7.3c0,0.8-0.1,1.7-0.4,2.6l-0.3,1.2c-0.7,2.4-1.3,4.8-2.2,7.2c-1.5,4.8-4.5,5.8-6.8,5.8
				c-1.7,0-3.2-0.6-4.3-1.2c-4.2-2-8.5-2.9-13.3-2.6c-1.1,0.1-1.9,0.2-2.4,0.5c-0.8,0.3-1.1,0.8-1.1,1c0,0.2,0.2,0.6,0.7,1.1
				c1.7,1.4,3.8,2.4,5.7,3.1l1.3,0.5c1.9,0.8,3.8,1.6,5.7,2.4c2.5,1.1,3.7,4.1,2.5,6.6C140.4,124.5,138.6,125.6,136.6,125.6z
				 M32.1,107.9c-2.7,0-4.9-2.1-5-4.8c0-0.3,0-0.7,0-1c0-9.2,5.8-17.3,14.4-20.2l8.1-2.8c4.5-1.5,7.6-5.8,7.7-10.6l0.1-8.6
				c0.2-11.6,9.8-21,21.4-21c2.1,0,4.2,0.3,6.3,0.9l8.2,2.5c4.6,1.4,9.6-0.3,12.5-4l5.1-6.9c4.1-5.4,10.3-8.5,17.1-8.5
				c4,0,7.8,1.1,11.2,3.1c2.4,1.4,3.1,4.5,1.7,6.9c-1.4,2.4-4.5,3.1-6.9,1.7c-1.8-1.1-3.8-1.7-5.9-1.7c-3.6,0-6.9,1.7-9.1,4.5
				l-5.1,6.9c-4,5.4-10.4,8.6-17.1,8.6c-2.1,0-4.2-0.3-6.3-0.9l-8.2-2.5c-1.1-0.3-2.3-0.5-3.4-0.5c-6.2,0-11.3,5-11.4,11.2l-0.1,8.6
				c-0.2,9-6,17-14.4,19.9l-8.1,2.8c-4.6,1.6-7.7,5.9-7.7,10.8c0,0.2,0,0.4,0,0.5c0.1,2.8-2,5.1-4.8,5.2
				C32.3,107.9,32.2,107.9,32.1,107.9z"/>
		</g>
	</g>
	<g id="XMLID_1053_">
		<path id="XMLID_1054_" class="st3" d="M169.9,192.4c-0.7,0-1.4-0.1-2-0.1c-2-0.2-4.4-0.4-6.7-1.5c-1.7-0.9-2.4-3-1.6-4.7
			c0.9-1.7,3-2.4,4.7-1.6c1.1,0.6,2.7,0.7,4.2,0.9c0.5,0,1,0.1,1.4,0.1c0.5,0,0.7-0.1,0.8-0.1c0.7-0.3,1.1-2.8,1.3-3.7
			c0.3-1.9,2.1-3.2,4.1-2.8c1.9,0.3,3.2,2.2,2.8,4.1c-0.4,2.4-1.2,6.9-5.2,8.8C172.6,192.1,171.3,192.4,169.9,192.4z M178.2,176.1
			c-0.5,0-1-0.1-1.4-0.3c-1.8-0.8-2.6-2.9-1.8-4.6c0.6-1.4,1.4-2.8,2.2-4c2.8-4.5,6.8-7.9,11.2-9.7c1.8-0.7,3.8,0.1,4.6,1.9
			c0.7,1.8-0.1,3.8-1.9,4.6c-3.1,1.2-5.9,3.7-7.9,7c-0.6,1-1.2,2-1.7,3.2C180.8,175.3,179.5,176.1,178.2,176.1z"/>
	</g>
</g>
</svg>
