<svg version="1" xmlns="http://www.w3.org/2000/svg" width="1450.667" height="1450.667" viewBox="0 0 1088.000000 1088.000000"><path d="M335.3 183.3L127 303.5v483l208.3 120.2C449.8 972.8 544 1027 544.5 1027.2c.6.2 94.9-53.9 209.8-120.2L963 786.5v-483L754.6 183.2C640 117.1 545.7 63 544.9 63c-.8.1-95.1 54.2-209.6 120.3zM606 137.2c33.6 19.4 61 35.5 61 35.8 0 .5-385.7 661-386.5 661.8-.3.4-108.4-61.7-115.7-66.4L161 766V323.9l3.7-2.2c5.3-3.1 379.7-219.5 380.1-219.6.1-.1 27.7 15.7 61.2 35.1zm198.6 115L928 323.5v443l-34.2 19.8c-18.8 10.8-34.5 19.4-34.9 19-.8-.8-236.9-499.6-241.2-509.5l-2-4.7 27.3-46.8c36.8-63 37-63.3 37.6-63.3.3 0 56.1 32.1 124 71.2zm-78.7 308C791.5 699 845.2 812.9 845.2 813.5c.1.5-67.4 40-150 87.7L545 987.9l-125.9-72.7c-120.3-69.4-125.9-72.7-124.8-74.8C300.7 828.8 605.6 308 606.1 308c.3 0 54.2 113.5 119.8 252.2z"/></svg>