<?xml version="1.0" encoding="utf-8"?>
<!-- Generator: Adobe Illustrator 19.0.0, SVG Export Plug-In . SVG Version: 6.00 Build 0)  -->
<svg version="1.1" id="Layer_1" xmlns="http://www.w3.org/2000/svg" xmlns:xlink="http://www.w3.org/1999/xlink" x="0px" y="0px"
	 viewBox="0 0 256 256" style="enable-background:new 0 0 256 256;" xml:space="preserve">
<style type="text/css">
	.st0{fill:#84D6EF;}
	.st1{fill:#2A3274;}
	.st2{fill:#FFFFFF;}
</style>
<g id="XMLID_856_">
	<g id="XMLID_863_">
		<g id="XMLID_869_">
			<path id="XMLID_874_" class="st0" d="M107.4,42.1L107.4,42.1c43.9,0,79.4,28.8,79.4,64.3s-35.5,64.3-79.4,64.3
				c-4.2,0-8.3-0.3-12.4-0.8c-17.1,17-36.8,20-56.4,20.5v-4.2c10.6-5.2,19.2-14.6,19.2-25.4c0-1.5-0.1-3-0.3-4.4
				c-18-11.8-29.4-29.8-29.4-49.9C28,70.9,63.6,42.1,107.4,42.1z"/>
			<path id="XMLID_870_" class="st1" d="M38.6,195.3c-1.3,0-2.6-0.5-3.5-1.4c-1-0.9-1.5-2.2-1.5-3.6v-4.2c0-1.9,1.1-3.7,2.8-4.5
				c4.2-2.1,7.9-4.8,10.7-7.9c1.8-2.1,5-2.2,7.1-0.4c2,1.9,2.2,5,0.4,7.1c-1.3,1.5-2.8,2.9-4.4,4.2c14.3-1.5,28.7-5.8,41.3-18.3
				c1.1-1.1,2.6-1.6,4.2-1.4c3.9,0.5,7.8,0.7,11.7,0.7c18.5,0,36.3-5.5,50-15.4c2.2-1.6,5.4-1.1,7,1.1c1.6,2.2,1.1,5.4-1.1,7
				c-15.4,11.2-35.3,17.3-55.9,17.3c-3.5,0-7.1-0.2-10.6-0.5c-18.2,17-38.6,19.8-58.1,20.2C38.7,195.3,38.6,195.3,38.6,195.3z
				 M57.7,163.9c-2.6,0-4.8-2-5-4.7c0,0,0-0.1,0-0.1C33.8,146,23,126.9,23,106.4c0-29.7,22.9-56,57.1-65.6c2.7-0.7,5.4,0.8,6.2,3.5
				s-0.8,5.4-3.5,6.2C53,58.8,33,81.3,33,106.4c0,17.7,9.9,34.4,27.2,45.8c1.2,0.8,2,2,2.2,3.4c0.2,1,0.3,2,0.3,3.1
				c0.2,2.8-1.9,5.1-4.7,5.3C57.9,163.9,57.8,163.9,57.7,163.9z M174.7,145.4c-1.1,0-2.1-0.3-3.1-1c-2.2-1.7-2.6-4.8-0.9-7
				c7.2-9.3,11-20,11-31c0-32.7-33.4-59.3-74.4-59.3c-2,0-4,0.1-6,0.2c-2.7,0.2-5.1-1.9-5.3-4.7c-0.2-2.8,1.9-5.1,4.7-5.3
				c2.2-0.1,4.4-0.2,6.6-0.2c46.5,0,84.4,31.1,84.4,69.3c0,13.2-4.5,26-13.1,37.1C177.7,144.8,176.2,145.4,174.7,145.4z"/>
		</g>
		<g id="XMLID_864_">
			<path id="XMLID_868_" class="st0" d="M202.2,188.5c0,9.3,6,17.4,15.2,21.8v3.6c-17.1-0.4-32.7-3-47.5-17.6
				c-3.5,0.4-7.1,0.7-10.7,0.7c-15.8,0-30.3-4.3-42-11.4c23.9-0.1,46.5-7.8,63.7-21.6c8.6-7,15.4-15.2,20.2-24.4
				c5.1-9.7,7.7-20.1,7.7-30.8c0-1.7-0.1-3.4-0.2-5.2c12,9.9,19.4,23.4,19.4,38.3c0,17.3-10,32.7-25.5,42.8
				C202.3,186,202.2,187.2,202.2,188.5z"/>
			<path id="XMLID_865_" class="st1" d="M217.4,218.9c0,0-0.1,0-0.1,0c-18.7-0.4-34.3-3.6-49.1-17.3c-3,0.3-6,0.4-9,0.4
				c-16.3,0-31.7-4.2-44.6-12.2c-1.9-1.2-2.8-3.5-2.2-5.6c0.6-2.1,2.6-3.6,4.8-3.6c3.7,0,7.3-0.2,11-0.6c2.7-0.3,5.2,1.7,5.5,4.4
				c0.1,1.2-0.2,2.3-0.7,3.2c8.2,2.9,17,4.4,26.2,4.4c3.4,0,6.8-0.2,10.1-0.6c1.5-0.2,3,0.3,4.1,1.4c10,9.8,20.1,13.8,32.2,15.3
				c-5.4-5.4-8.4-12.2-8.4-19.6c0-1.5,0.1-3,0.3-4.6c0.2-1.4,1-2.7,2.2-3.4c8.9-5.8,15.7-13.4,19.6-21.9c1.1-2.5,4.1-3.6,6.6-2.5
				c2.5,1.1,3.6,4.1,2.5,6.6c-4.4,9.6-11.7,18.1-21.2,24.8c0,0.3,0,0.6,0,1c0,7.1,4.6,13.5,12.4,17.3c1.7,0.8,2.8,2.6,2.8,4.5v3.6
				c0,1.3-0.5,2.6-1.5,3.6C220,218.4,218.7,218.9,217.4,218.9z M148.3,186c-2.1,0-4.1-1.4-4.8-3.6c-0.8-2.6,0.7-5.4,3.3-6.2
				c11.6-3.5,22-8.9,30.9-16.1c8.1-6.6,14.5-14.2,19-22.8c4.7-9,7.1-18.6,7.1-28.5c0-1.5-0.1-3.1-0.2-4.8c-0.2-2,0.9-3.9,2.7-4.8
				c1.8-0.9,3.9-0.7,5.5,0.6c13.5,11.1,21,25.9,21.2,41.5c0,2.8-2.2,5-4.9,5.1c0,0,0,0-0.1,0c-2.7,0-5-2.2-5-4.9
				c-0.1-9.2-3.4-18.1-9.5-25.8c-0.9,9.1-3.5,17.9-7.9,26.3c-5.1,9.8-12.4,18.5-21.5,25.9c-9.9,8-21.5,14.1-34.3,17.9
				C149.3,185.9,148.8,186,148.3,186z"/>
		</g>
	</g>
	<g id="XMLID_857_">
		<path id="XMLID_858_" class="st2" d="M61.3,134.8c-0.8,0-1.7-0.3-2.3-0.9c-3-2.7-5.7-5.3-7.6-8.6c-1-1.7-0.4-3.8,1.3-4.8
			c1.7-0.9,3.8-0.4,4.8,1.3c1.3,2.4,3.6,4.5,6.2,6.8c1.4,1.3,1.6,3.5,0.3,4.9C63.2,134.5,62.2,134.8,61.3,134.8z M52.5,117.5
			C52.5,117.5,52.5,117.5,52.5,117.5c-2,0-3.5-1.6-3.5-3.6l0-0.7c0.2-6.1,0.4-11.5,1.6-16.9c0.4-1.9,2.3-3.1,4.2-2.6
			c1.9,0.4,3.1,2.3,2.6,4.2c-1.1,4.8-1.3,9.9-1.4,15.6l0,0.6C56,115.9,54.5,117.5,52.5,117.5z M57.7,91.3c-0.6,0-1.3-0.2-1.8-0.5
			c-1.7-1-2.2-3.2-1.2-4.8c0.2-0.3,0.3-0.5,0.5-0.8c3-4.6,7.1-8.1,10.8-11.1l1.3-1.1c1.5-1.2,3.7-1,4.9,0.5c1.2,1.5,1,3.7-0.5,4.9
			l-1.2,1C67,82.3,63.4,85.3,61,89c-0.1,0.2-0.3,0.4-0.4,0.6C60,90.7,58.9,91.3,57.7,91.3z M77.8,73.7c-1.3,0-2.6-0.8-3.2-2.1
			c-0.8-1.8,0-3.8,1.8-4.6c5.9-2.6,12.9-3,19-1.3c1.9,0.5,2.9,2.5,2.4,4.3c-0.5,1.9-2.5,2.9-4.3,2.4c-4.6-1.3-9.8-1-14.3,1
			C78.8,73.6,78.3,73.7,77.8,73.7z"/>
	</g>
</g>
</svg>
