<?xml version="1.0" encoding="utf-8"?>
<!-- Generator: Adobe Illustrator 19.0.0, SVG Export Plug-In . SVG Version: 6.00 Build 0)  -->
<svg version="1.1" id="Layer_1" xmlns="http://www.w3.org/2000/svg" xmlns:xlink="http://www.w3.org/1999/xlink" x="0px" y="0px"
	 viewBox="0 0 256 256" style="enable-background:new 0 0 256 256;" xml:space="preserve">
<style type="text/css">
	.st0{fill:#97AEC9;}
	.st1{fill:#2A3274;}
	.st2{fill:#FFFFFF;}
</style>
<g id="XMLID_1071_">
	<g id="XMLID_1080_">
		<g id="XMLID_1081_">
			<path id="XMLID_1088_" class="st0" d="M223.1,134.3L128.7,40c-3.3-3.3-7.8-6.2-13.5-8.5c-5.6-2.3-10.8-3.5-15.4-3.5H44.9
				c-4.6,0-8.5,1.7-11.9,5c-3.3,3.3-5,7.3-5,11.9v54.9c0,4.7,1.2,9.8,3.5,15.4c2.3,5.6,5.2,10.1,8.5,13.3l94.4,94.5
				c3.3,3.3,7.2,4.9,11.9,4.9c4.6,0,8.6-1.6,12-4.9l64.8-65c3.3-3.3,4.9-7.2,4.9-11.9C228,141.7,226.4,137.7,223.1,134.3z
				 M82.2,82.2c-3.3,3.3-7.3,5-11.9,5c-4.7,0-8.6-1.7-11.9-5c-3.3-3.3-5-7.3-5-11.9c0-4.7,1.6-8.6,5-11.9c3.3-3.3,7.3-5,11.9-5
				c4.7,0,8.6,1.7,11.9,5c3.3,3.3,5,7.3,5,11.9C87.1,74.9,85.5,78.9,82.2,82.2z"/>
			<path id="XMLID_1082_" class="st1" d="M146.3,233c-6,0-11.2-2.1-15.4-6.3l-89.9-90c-2-2-1.9-5.1,0-7.1c2-2,5.1-1.9,7.1,0l89.9,90
				c2.3,2.3,5,3.4,8.3,3.4c2.4,0,4.5-0.6,6.4-1.8c2.3-1.5,5.4-0.8,6.9,1.5c1.5,2.3,0.8,5.4-1.5,6.9C154.6,231.9,150.6,233,146.3,233
				z M169.8,216.6c-1.3,0-2.6-0.5-3.5-1.5c-2-2-2-5.1,0-7.1l53.3-53.4c2.3-2.3,3.4-5,3.4-8.3c0-3.3-1.1-6-3.5-8.5l-94.3-94.2
				c-2.9-2.9-6.8-5.4-11.8-7.4l-0.5-0.2c-2.6-1-3.8-3.9-2.8-6.5c1-2.6,3.9-3.8,6.5-2.8l0.6,0.2c6.2,2.6,11.3,5.8,15.1,9.6l94.4,94.3
				c0,0,0.1,0.1,0.1,0.1c4.1,4.4,6.3,9.6,6.3,15.5c0,6-2.1,11.2-6.3,15.4l-53.3,53.4C172.4,216.1,171.1,216.6,169.8,216.6z
				 M32.4,122.4c-1.9,0-3.7-1.1-4.5-2.9c-0.3-0.8-0.7-1.5-1-2.3C24.3,111,23,105.1,23,99.8V44.9c0-5.9,2.2-11.1,6.5-15.4
				C33.8,25.2,39,23,44.9,23h50.3c2.8,0,5,2.2,5,5s-2.2,5-5,5H44.9c-3.3,0-5.9,1.1-8.3,3.6C34.1,39,33,41.6,33,44.9v54.9
				c0,4,1,8.5,3.1,13.5c0.3,0.7,0.6,1.3,0.9,2c1.2,2.5,0.1,5.5-2.4,6.6C33.9,122.3,33.1,122.4,32.4,122.4z M70.2,92.1
				c-6,0-11.2-2.2-15.5-6.4c-4.3-4.3-6.4-9.5-6.4-15.5c0-6,2.2-11.2,6.4-15.5c4.3-4.3,9.5-6.4,15.5-6.4c6,0,11.2,2.2,15.5,6.4
				c4.3,4.3,6.4,9.5,6.4,15.5c0,6-2.2,11.2-6.4,15.5c0,0,0,0,0,0C81.5,90,76.3,92.1,70.2,92.1z M70.2,58.3c-3.4,0-6,1.1-8.4,3.5
				c-2.4,2.4-3.5,5.1-3.5,8.4c0,3.4,1.1,6,3.5,8.4c2.4,2.4,5.1,3.5,8.4,3.5c3.4,0,6-1.1,8.4-3.5c2.4-2.4,3.5-5.1,3.5-8.4
				s-1.1-6-3.5-8.4C76.3,59.5,73.6,58.3,70.2,58.3z"/>
		</g>
	</g>
	<g id="XMLID_1073_">
		<path id="XMLID_1074_" class="st2" d="M201.6,150.2c-0.9,0-1.8-0.3-2.5-1l-0.1-0.1c-1.4-1.4-1.4-3.6,0-4.9c1.4-1.4,3.6-1.4,5,0
			l0.1,0.1c1.4,1.4,1.4,3.6,0,4.9C203.4,149.9,202.5,150.2,201.6,150.2z M194.4,143c-0.9,0-1.8-0.3-2.5-1l-12-12
			c-1.4-1.4-1.4-3.6,0-4.9c1.4-1.4,3.6-1.4,4.9,0l12,12c1.4,1.4,1.4,3.6,0,4.9C196.2,142.7,195.3,143,194.4,143z M175.3,123.9
			c-0.9,0-1.8-0.3-2.5-1l-12-12c-1.4-1.4-1.4-3.6,0-4.9c1.4-1.4,3.6-1.4,4.9,0l12,12c1.4,1.4,1.4,3.6,0,4.9
			C177.1,123.6,176.2,123.9,175.3,123.9z M156.2,104.9c-0.9,0-1.8-0.3-2.5-1l-12-12c-1.4-1.4-1.4-3.6,0-4.9c1.4-1.4,3.6-1.4,4.9,0
			l12,12c1.4,1.4,1.4,3.6,0,4.9C158,104.5,157.1,104.9,156.2,104.9z M137.1,85.8c-0.9,0-1.8-0.3-2.5-1l-12-12
			c-1.4-1.4-1.4-3.6,0-4.9c1.4-1.4,3.6-1.4,4.9,0l12,12c1.4,1.4,1.4,3.6,0,4.9C138.9,85.4,138,85.8,137.1,85.8z"/>
	</g>
</g>
</svg>
