<?xml version="1.0" encoding="utf-8"?>
<!-- Generator: Adobe Illustrator 19.0.0, SVG Export Plug-In . SVG Version: 6.00 Build 0)  -->
<svg version="1.1" id="Layer_1" xmlns="http://www.w3.org/2000/svg" xmlns:xlink="http://www.w3.org/1999/xlink" x="0px" y="0px"
	 viewBox="0 0 256 256" style="enable-background:new 0 0 256 256;" xml:space="preserve">
<style type="text/css">
	.st0{fill:#61AFD1;}
	.st1{fill:#2A3274;}
	.st2{fill:#FFFFFF;}
</style>
<g id="XMLID_997_">
	<g id="XMLID_1004_">
		<g id="XMLID_1005_">
			<path id="XMLID_1011_" class="st0" d="M152.7,167c-4.9-0.8-5-14.4-5-14.4s14.5-14.4,17.7-33.7c8.5,0,13.8-20.5,5.3-27.7
				c0.4-7.6,10.9-59.7-42.6-59.7c-53.5,0-43,52.1-42.6,59.7c-8.5,7.2-3.3,27.7,5.3,27.7c3.2,19.3,17.7,33.7,17.7,33.7
				s-0.1,13.6-5,14.4C87.4,169.5,28,195.7,28,224.4h100h100C228,195.7,168.6,169.5,152.7,167z"/>
			<path id="XMLID_1006_" class="st1" d="M228,229.4H89.6c-2.8,0-5-2.2-5-5s2.2-5,5-5h132.6c-0.4-1.3-0.9-2.6-1.6-3.9
				c-1.2-2.5-0.2-5.5,2.2-6.7c2.5-1.2,5.5-0.2,6.7,2.2c2.2,4.5,3.4,9,3.4,13.4c0,1.3-0.5,2.6-1.5,3.5
				C230.6,228.9,229.3,229.4,228,229.4z M69.6,229.4H28c-2.8,0-5-2.2-5-5c0-32.6,62.1-59,78.7-62.2c0.2-0.5,0.7-1.5,1-3.4
				c0.5-2.7,3.2-4.5,5.9-4c2.7,0.5,4.5,3.1,4,5.9c-1.3,6.8-4.1,10.5-8.5,11.2c-6.7,1.1-24.7,7.6-41.7,18.2
				c-15.9,9.9-25.8,20.1-28.5,29.3h35.9c2.8,0,5,2.2,5,5S72.4,229.4,69.6,229.4z M212.6,202.9c-1.2,0-2.4-0.4-3.3-1.3
				c-17.4-15.5-47-28-57.3-29.6c-8.2-1.3-9.2-13.9-9.3-19.3c0-1.3,0.5-2.6,1.5-3.6c0.1-0.1,13.4-13.5,16.2-30.9
				c0.4-2.4,2.5-4.2,4.9-4.2c1.1,0,4.6-4.6,4.6-11.4c0-3.4-0.9-6.1-2.6-7.5c-1.2-1-1.8-2.5-1.8-4c0-0.8,0.1-1.8,0.3-3.1
				c0.3-2.9,0.8-7.2,0.8-12.2c0-17.4-5.8-29.1-17.2-34.8c-2.5-1.2-3.5-4.2-2.2-6.7c1.2-2.5,4.2-3.5,6.7-2.2
				c14.9,7.4,22.7,22.5,22.7,43.8c0,5.5-0.5,10.2-0.8,13.3c0,0.2,0,0.3-0.1,0.5c2.7,3.3,4.1,7.9,4.1,13.1c0,8.5-3.8,17.7-10.3,20.5
				c-3.5,15.4-13.1,27.2-16.9,31.5c0.2,3.2,0.9,6.4,1.6,7.7c11.9,2.2,42.2,14.6,61.6,31.9c2.1,1.8,2.2,5,0.4,7.1
				C215.3,202.3,214,202.9,212.6,202.9z M100.3,147.6c-1.6,0-3.2-0.8-4.2-2.3c-4.8-7.3-8.1-14.8-9.8-22.2
				c-6.4-2.9-10.3-12-10.3-20.5c0-5.3,1.5-9.8,4.1-13.1c0-0.2,0-0.3-0.1-0.5c-0.3-3.1-0.8-7.8-0.8-13.3c0-31.7,17.3-49.1,48.7-49.1
				c1.6,0,3.2,0,4.7,0.1c2.8,0.2,4.9,2.5,4.7,5.3c-0.2,2.8-2.5,4.9-5.3,4.7c-1.3-0.1-2.7-0.1-4.1-0.1c-26,0-38.7,12.8-38.7,39.1
				c0,5,0.5,9.3,0.8,12.2c0.1,1.3,0.3,2.3,0.3,3.1c0.1,1.5-0.6,3-1.8,4c-1.6,1.4-2.6,4.1-2.6,7.5c0,6.8,3.4,11.4,4.6,11.4
				c2.4,0,4.5,1.8,4.9,4.2c1.5,8.9,5.7,16.7,8.9,21.6c1.5,2.3,0.9,5.4-1.4,6.9C102.2,147.3,101.3,147.6,100.3,147.6z"/>
		</g>
	</g>
	<g id="XMLID_999_">
		<path id="XMLID_1000_" class="st2" d="M186.4,210.1h-12.5c-1.9,0-3.5-1.6-3.5-3.5s1.6-3.5,3.5-3.5h12.5c1.9,0,3.5,1.6,3.5,3.5
			S188.3,210.1,186.4,210.1z M163.9,210.1h-17c-1.9,0-3.5-1.6-3.5-3.5s1.6-3.5,3.5-3.5h17c1.9,0,3.5,1.6,3.5,3.5
			S165.8,210.1,163.9,210.1z M136.9,210.1h-17c-1.9,0-3.5-1.6-3.5-3.5s1.6-3.5,3.5-3.5h17c1.9,0,3.5,1.6,3.5,3.5
			S138.8,210.1,136.9,210.1z"/>
	</g>
</g>
</svg>
